<svg width="309" height="276" viewBox="0 0 309 276" fill="none" xmlns="http://www.w3.org/2000/svg">
<path d="M124.837 129.945L118.606 130.347C117.767 130.402 117.041 129.767 116.987 128.929L115.59 107.408C115.535 106.57 116.17 105.845 117.009 105.79L123.241 105.388C124.079 105.333 124.805 105.968 124.859 106.806L126.257 128.327C126.311 129.165 125.676 129.89 124.837 129.945Z" fill="#212441"/>
<path d="M122.83 99.0226L116.599 99.4252C115.76 99.4796 115.034 98.8449 114.98 98.0071L113.031 67.9554C112.976 67.1176 113.612 66.3922 114.45 66.3378L120.682 65.9353C121.52 65.8809 122.246 66.5155 122.3 67.3533L124.249 97.4051C124.307 98.2465 123.669 98.9682 122.83 99.0226Z" fill="#212441"/>
<path d="M128.989 268.304L19.7873 275.376C17.2722 275.539 15.0981 273.632 14.9348 271.118L0.0396524 41.5559C-0.123672 39.0425 1.78541 36.8701 4.3006 36.7069L113.503 29.631C116.018 29.4677 118.192 31.3755 118.355 33.8888L133.25 263.455C133.414 265.968 131.508 268.141 128.989 268.304Z" fill="#373A54"/>
<path d="M122.783 252.349L23.8813 258.758C20.3463 258.987 17.2939 256.31 17.0653 252.777L4.03925 52.0047C3.8106 48.4722 6.48911 45.422 10.0242 45.1935L108.926 38.785C112.461 38.5565 115.513 41.2331 115.742 44.7656L128.768 245.535C128.997 249.071 126.318 252.121 122.783 252.349Z" fill="#FFCB26"/>
<path d="M57.7584 38.3353C57.831 39.4306 56.9962 40.3772 55.9001 40.4497C54.8041 40.5222 53.8568 39.6881 53.7842 38.5928C53.7116 37.4975 54.5464 36.5509 55.6424 36.4784C56.7385 36.4095 57.6858 37.24 57.7584 38.3353Z" fill="#212441"/>
<path d="M64.6797 37.8892C64.7305 38.6835 64.128 39.369 63.3332 39.4234C62.5383 39.4742 61.8524 38.8721 61.7979 38.0778C61.7471 37.2836 62.3496 36.5981 63.1444 36.5437C63.9429 36.4893 64.6289 37.0913 64.6797 37.8892Z" fill="#212441"/>
<path d="M95.6074 139.577C113.208 121.989 113.208 93.4728 95.6074 75.8847C78.0066 58.2965 49.47 58.2965 31.8691 75.8847C14.2683 93.4728 14.2683 121.989 31.8691 139.577C49.47 157.165 78.0066 157.165 95.6074 139.577Z" fill="white"/>
<path d="M108.926 38.7887L10.0242 45.1972C6.48915 45.4257 3.807 48.4759 4.03929 52.0084L4.22076 54.8337L115.924 47.5982L115.738 44.7729C115.513 41.2368 112.461 38.5566 108.926 38.7887Z" fill="#A6A8B3"/>
<path d="M16.8584 249.582L17.0653 252.774C17.2939 256.306 20.3463 258.987 23.8813 258.755L122.783 252.346C126.318 252.118 129 249.067 128.768 245.535L128.561 242.343L16.8584 249.582Z" fill="#A6A8B3"/>
<path d="M90.8243 159.997L43.6359 163.054L44.0334 169.181L91.2219 166.124L90.8243 159.997Z" fill="white"/>
<path d="M109.448 174.983L27.1064 180.318L27.3039 183.362L109.646 178.027L109.448 174.983Z" fill="#A6A8B3"/>
<path d="M72.3887 241.038L74.9257 235.906L69.2094 236.276L72.3887 241.038Z" fill="#A6A8B3"/>
<path d="M42.896 222.936C43.219 227.934 39.4262 232.25 34.4249 232.573C29.4236 232.896 25.1045 229.109 24.7815 224.108C24.4585 219.11 28.2513 214.794 33.2526 214.471C38.2539 214.149 42.573 217.939 42.896 222.936Z" fill="white"/>
<path d="M38.1378 219.665L37.1107 218.766L33.7752 222.563L29.9788 219.23L29.0787 220.252L32.8751 223.586L29.5397 227.379L30.5668 228.279L33.9022 224.485L37.6986 227.818L38.5987 226.795L34.8023 223.462L38.1378 219.665Z" fill="#595B70"/>
<path d="M78.3486 226.57C81.3681 222.571 80.5715 216.883 76.5695 213.866C72.5675 210.849 66.8754 211.645 63.856 215.644C60.8365 219.643 61.6331 225.331 65.6351 228.348C69.6372 231.365 75.3292 230.569 78.3486 226.57Z" fill="white"/>
<path d="M76.45 216.306C73.9348 214.457 72.0003 218.816 71.2309 220.952C69.9969 218.802 67.3474 214.957 65.1734 217.035C61.8634 220.202 71.3761 227.423 71.5031 227.314C71.641 227.408 80.1194 219.001 76.45 216.306Z" fill="#FF124B"/>
<path d="M117.412 218.109C117.735 223.107 113.942 227.423 108.941 227.745C103.939 228.068 99.6203 224.278 99.2973 219.28C98.9743 214.283 102.763 209.967 107.768 209.644C112.77 209.321 117.089 213.111 117.412 218.109Z" fill="white"/>
<path d="M109.736 221.264L109.093 224.982L112.204 220.927C112.204 220.927 115.43 218.889 113.949 215.835C112.331 212.502 104.64 213.118 102.952 215.066C101.261 217.014 102.618 221.134 105.642 221.355C108.204 221.536 109.736 221.264 109.736 221.264Z" fill="#22D5D2"/>
<path d="M109.927 182.389L27.5856 187.724L27.7831 190.768L110.125 185.433L109.927 182.389Z" fill="#A6A8B3"/>
<path d="M96.2594 190.827L28.0753 195.244L28.2728 198.288L96.4568 193.87L96.2594 190.827Z" fill="#A6A8B3"/>
<path d="M284.057 139.012L277.836 138.468C276.997 138.395 276.38 137.655 276.453 136.821L278.337 115.336C278.409 114.498 279.15 113.882 279.984 113.954L286.205 114.498C287.044 114.571 287.661 115.311 287.588 116.145L285.704 137.63C285.632 138.468 284.891 139.088 284.057 139.012Z" fill="#212441"/>
<path d="M286.761 108.148L280.54 107.604C279.701 107.531 279.084 106.791 279.157 105.957L281.785 75.9562C281.857 75.1184 282.598 74.5019 283.432 74.5744L289.653 75.1184C290.492 75.191 291.109 75.9308 291.036 76.765L288.408 106.766C288.336 107.6 287.599 108.22 286.761 108.148Z" fill="#212441"/>
<path d="M262.149 275.964L163.208 267.307C157.912 266.842 153.996 262.178 154.461 256.89L173.657 37.7878C174.121 32.4962 178.789 28.5829 184.08 29.0471L283.022 37.7043C288.318 38.1686 292.234 42.8326 291.769 48.1205L272.573 267.223C272.109 272.515 267.441 276.424 262.149 275.964Z" fill="#42455D"/>
<path d="M263.467 259.694L164.736 251.055C161.208 250.747 158.595 247.638 158.903 244.11L176.462 43.6886C176.771 40.1633 179.881 37.552 183.413 37.8603L282.144 46.4993C285.672 46.8076 288.285 49.9158 287.976 53.4447L270.417 253.866C270.109 257.395 266.998 260.002 263.467 259.694Z" fill="white"/>
<path d="M231.637 38.31C231.542 39.4053 230.577 40.2141 229.481 40.1198C228.385 40.0255 227.575 39.0571 227.67 37.9654C227.764 36.8701 228.733 36.0614 229.826 36.1557C230.922 36.25 231.731 37.2147 231.637 38.31Z" fill="#212441"/>
<path d="M238.547 38.912C238.478 39.7063 237.778 40.2938 236.983 40.2213C236.188 40.1524 235.6 39.4524 235.673 38.6581C235.742 37.8638 236.442 37.2763 237.237 37.3488C238.028 37.4214 238.616 38.1213 238.547 38.912Z" fill="#212441"/>
<path d="M284.057 139.012L277.836 138.468C276.997 138.395 276.38 137.655 276.453 136.821L278.337 115.336C278.409 114.498 279.15 113.882 279.984 113.954L286.205 114.498C287.044 114.571 287.661 115.311 287.588 116.145L285.704 137.63C285.632 138.468 284.891 139.088 284.057 139.012Z" fill="#212441"/>
<path d="M286.761 108.148L280.54 107.604C279.701 107.531 279.084 106.791 279.157 105.957L281.785 75.9562C281.857 75.1184 282.598 74.5019 283.432 74.5744L289.653 75.1184C290.492 75.191 291.109 75.9308 291.036 76.765L288.408 106.766C288.336 107.6 287.599 108.22 286.761 108.148Z" fill="#212441"/>
<path d="M262.149 275.964L163.208 267.307C157.912 266.842 153.996 262.178 154.461 256.89L173.657 37.7878C174.121 32.4962 178.789 28.5829 184.08 29.0471L283.022 37.7043C288.318 38.1686 292.234 42.8326 291.769 48.1205L272.573 267.223C272.109 272.515 267.441 276.424 262.149 275.964Z" fill="#373A54"/>
<path d="M263.467 259.694L164.736 251.055C161.208 250.747 158.595 247.638 158.903 244.11L176.462 43.6886C176.771 40.1633 179.881 37.552 183.413 37.8603L282.144 46.4993C285.672 46.8076 288.285 49.9158 287.976 53.4447L270.417 253.866C270.109 257.395 266.998 260.002 263.467 259.694Z" fill="#FFCB26"/>
<path d="M231.637 38.31C231.542 39.4053 230.577 40.2141 229.481 40.1198C228.385 40.0255 227.575 39.0571 227.67 37.9654C227.764 36.8701 228.733 36.0614 229.826 36.1557C230.922 36.25 231.731 37.2147 231.637 38.31Z" fill="#212441"/>
<path d="M238.547 38.912C238.478 39.7063 237.778 40.2938 236.983 40.2213C236.188 40.1524 235.6 39.4524 235.673 38.6581C235.742 37.8638 236.442 37.2763 237.237 37.3488C238.028 37.4214 238.616 38.1213 238.547 38.912Z" fill="#212441"/>
<path d="M258.897 139.654C276.498 122.066 276.498 93.55 258.897 75.9618C241.296 58.3737 212.759 58.3737 195.159 75.9618C177.558 93.55 177.558 122.066 195.159 139.654C212.759 157.242 241.296 157.242 258.897 139.654Z" fill="white"/>
<path d="M282.147 46.4994L183.416 37.8603C179.888 37.552 176.774 40.1597 176.466 43.6886L176.219 46.5103L287.73 56.2664L287.976 53.4447C288.285 49.9195 285.675 46.8077 282.147 46.4994Z" fill="#A6A8B3"/>
<path d="M159.183 240.925L158.903 244.113C158.595 247.638 161.204 250.75 164.736 251.058L263.467 259.698C266.995 260.006 270.109 257.398 270.417 253.869L270.697 250.681L159.183 240.925Z" fill="#A6A8B3"/>
<path d="M245.885 163.567L198.777 159.447L198.241 165.564L245.349 169.684L245.885 163.567Z" fill="white"/>
<path d="M262.023 181.203L179.821 174.013L179.555 177.052L261.757 184.242L262.023 181.203Z" fill="#A6A8B3"/>
<path d="M215.37 240.885L218.658 236.196L212.953 235.695L215.37 240.885Z" fill="#A6A8B3"/>
<path d="M188.962 218.53C188.527 223.52 184.124 227.212 179.13 226.773C174.136 226.338 170.441 221.939 170.88 216.948C171.316 211.958 175.722 208.266 180.712 208.705C185.706 209.14 189.401 213.539 188.962 218.53Z" fill="white"/>
<path d="M184.752 214.573L183.877 213.532L180.005 216.778L176.756 212.908L175.711 213.782L178.959 217.652L175.087 220.898L175.965 221.942L179.838 218.696L183.086 222.566L184.131 221.692L180.879 217.822L184.752 214.573Z" fill="#595B70"/>
<path d="M225.219 225.066C227.469 220.59 225.662 215.138 221.182 212.89C216.702 210.642 211.246 212.448 208.997 216.925C206.747 221.401 208.554 226.853 213.034 229.101C217.514 231.349 222.969 229.543 225.219 225.066Z" fill="white"/>
<path d="M223.133 217.054C220.926 214.845 218.353 218.86 217.271 220.858C216.375 218.544 214.343 214.344 211.878 216.071C208.125 218.697 216.437 227.278 216.575 227.187C216.698 227.299 226.352 220.274 223.133 217.054Z" fill="#FF124B"/>
<path d="M262.636 227.875C264.642 223.283 262.543 217.937 257.948 215.932C253.354 213.928 248.003 216.025 245.997 220.616C243.991 225.208 246.09 230.554 250.685 232.559C255.279 234.563 260.63 232.466 262.636 227.875Z" fill="white"/>
<path d="M255.043 226.958L253.635 230.458L257.529 227.147C257.529 227.147 261.111 225.83 260.306 222.534C259.427 218.936 251.776 217.92 249.715 219.469C247.653 221.018 248.114 225.333 251.021 226.182C253.486 226.904 255.043 226.958 255.043 226.958Z" fill="#22D5D2"/>
<path d="M261.373 188.595L179.172 181.404L178.906 184.443L261.107 191.633L261.373 188.595Z" fill="#A6A8B3"/>
<path d="M246.585 194.864L178.517 188.91L178.251 191.949L246.319 197.903L246.585 194.864Z" fill="#A6A8B3"/>
<path d="M266.53 3.8698L267.285 0L268.098 3.88794C268.425 5.44746 269.43 6.67332 270.708 7.07227L273.894 8.06602L270.722 8.98723C269.448 9.35716 268.461 10.5613 268.16 12.1135L267.405 15.9833L266.592 12.0954C266.265 10.5359 265.26 9.31001 263.982 8.91106L260.796 7.91732L263.968 6.99611C265.238 6.62618 266.225 5.42208 266.53 3.8698Z" fill="white"/>
<path d="M142.948 125.941L143.663 122.278L144.433 125.959C144.741 127.435 145.692 128.596 146.904 128.973L149.92 129.912L146.915 130.786C145.71 131.138 144.774 132.277 144.487 133.746L143.772 137.409L143.003 133.728C142.694 132.252 141.743 131.091 140.531 130.714L137.515 129.774L140.52 128.9C141.725 128.549 142.662 127.41 142.948 125.941Z" fill="white"/>
<path d="M18.8075 40.5223L19.3192 37.8965L19.8709 40.5332C20.0923 41.5922 20.7746 42.4227 21.6421 42.6948L23.8052 43.3693L21.653 43.9968C20.7892 44.247 20.1177 45.0667 19.9145 46.1185L19.4027 48.7443L18.851 46.1076C18.6296 45.0485 17.9473 44.218 17.0799 43.946L14.9167 43.2714L17.069 42.644C17.9328 42.3937 18.6042 41.5777 18.8075 40.5223Z" fill="white"/>
<path d="M13.2834 173.855L13.7952 171.229L14.3469 173.865C14.5683 174.924 15.2506 175.755 16.118 176.027L18.2812 176.702L16.1289 177.329C15.2651 177.579 14.5937 178.399 14.3904 179.451L13.8787 182.077L13.327 179.44C13.1056 178.381 12.4233 177.55 11.5558 177.278L9.3927 176.604L11.5449 175.976C12.4088 175.726 13.0802 174.906 13.2834 173.855Z" fill="white"/>
<path d="M296.952 151.448L297.667 147.785L298.436 151.466C298.745 152.942 299.696 154.103 300.908 154.48L303.924 155.42L300.919 156.294C299.714 156.645 298.778 157.784 298.491 159.253L297.776 162.916L297.006 159.235C296.698 157.759 295.747 156.598 294.535 156.221L291.519 155.282L294.524 154.408C295.729 154.06 296.665 152.917 296.952 151.448Z" fill="white"/>
<path d="M80.6746 19.3091L81.1137 17.0532L81.5892 19.32C81.7779 20.2303 82.3659 20.9448 83.1099 21.1769L84.9682 21.7572L83.1172 22.294C82.3768 22.5116 81.7997 23.2115 81.6219 24.1182L81.1827 26.3741L80.7072 24.1074C80.5185 23.197 79.9305 22.4826 79.1865 22.2504L77.3282 21.6701L79.1793 21.1334C79.9233 20.9158 80.5004 20.2122 80.6746 19.3091Z" fill="white"/>
<path d="M157.669 175.842L158.108 173.586L158.584 175.853C158.773 176.763 159.361 177.478 160.105 177.71L161.963 178.29L160.112 178.827C159.371 179.045 158.794 179.745 158.616 180.651L158.177 182.907L157.702 180.64C157.513 179.73 156.925 179.016 156.181 178.783L154.323 178.203L156.174 177.666C156.914 177.449 157.491 176.745 157.669 175.842Z" fill="white"/>
<path d="M17.2649 146.432L17.5807 144.815L17.9219 146.44C18.0598 147.092 18.4772 147.604 19.0143 147.771L20.3463 148.184L19.0216 148.569C18.488 148.725 18.0779 149.225 17.9509 149.874L17.6351 151.492L17.294 149.867C17.156 149.214 16.7387 148.703 16.2015 148.536L14.8695 148.122L16.1942 147.738C16.7278 147.586 17.1379 147.082 17.2649 146.432Z" fill="white"/>
<path d="M303.783 57.3942L304.222 55.1383L304.697 57.4051C304.886 58.3154 305.474 59.0299 306.218 59.262L308.076 59.8423L306.225 60.379C305.485 60.593 304.908 61.2966 304.73 62.2033L304.291 64.4592L303.815 62.1924C303.627 61.2821 303.039 60.5676 302.295 60.3355L300.436 59.7552L302.287 59.2185C303.028 59.0045 303.605 58.3009 303.783 57.3942Z" fill="white"/>
<path d="M237.429 124.403C221.558 139.124 202.946 137.431 199.223 132.444C195.499 127.457 197.386 106.748 213.257 92.0229C229.129 77.2981 248.851 80.4824 251.464 83.9823C254.078 87.4785 253.301 109.678 237.429 124.403Z" fill="#CC5B29"/>
<path d="M213.21 119.467C209.806 114.908 205.051 112.337 200.133 111.88C199.295 114.223 198.682 116.504 198.268 118.647C202.068 118.564 205.864 120.337 208.485 123.848C211.105 127.359 211.98 131.842 211.218 135.994C213.185 135.933 215.308 135.675 217.526 135.182C218.019 129.709 216.615 124.03 213.21 119.467Z" fill="white"/>
<path d="M244.953 90.0209C248.303 94.5073 249.882 99.9838 249.777 105.395C250.782 102.57 251.483 99.8278 251.936 97.2891C251.617 93.5716 250.379 90.0173 248.162 87.047C245.944 84.0766 243.033 82.0746 239.814 81.0482C237.491 81.0845 234.943 81.3529 232.268 81.944C237.059 82.8108 241.603 85.5382 244.953 90.0209Z" fill="white"/>
<g opacity="0.6">
<path d="M238.841 85.7013C238.805 85.7013 238.776 85.6723 238.772 85.6324C238.769 85.5889 238.798 85.5526 238.834 85.549C238.834 85.549 238.943 85.5381 239.11 85.5309C239.15 85.5309 239.179 85.5635 239.179 85.6034C239.179 85.6469 239.15 85.6796 239.114 85.6832C238.95 85.6905 238.845 85.6977 238.845 85.6977C238.849 85.7013 238.845 85.7013 238.841 85.7013Z" fill="#9E461A"/>
<path d="M209.425 113.037C209.389 113.037 209.356 113.004 209.356 112.961C209.356 112.921 209.389 112.884 209.425 112.884C209.603 112.884 209.781 112.87 209.958 112.848C209.995 112.844 210.031 112.873 210.035 112.913C210.038 112.957 210.013 112.993 209.973 113C209.791 113.022 209.606 113.037 209.425 113.037ZM208.884 113C208.88 113 208.877 113 208.877 113C208.699 112.975 208.514 112.939 208.336 112.892C208.3 112.881 208.278 112.841 208.285 112.801C208.292 112.757 208.332 112.736 208.369 112.743C208.543 112.79 208.721 112.826 208.895 112.848C208.931 112.855 208.96 112.892 208.953 112.935C208.946 112.971 208.917 113 208.884 113ZM210.496 112.895C210.467 112.895 210.437 112.87 210.43 112.837C210.423 112.797 210.445 112.754 210.481 112.747C210.652 112.703 210.822 112.645 210.993 112.576C211.029 112.562 211.069 112.583 211.08 112.623C211.094 112.663 211.073 112.707 211.04 112.721C210.866 112.79 210.688 112.848 210.514 112.895C210.506 112.892 210.503 112.895 210.496 112.895ZM207.832 112.718C207.824 112.718 207.817 112.714 207.81 112.714C207.77 112.696 207.73 112.681 207.694 112.663C207.599 112.623 207.548 112.511 207.548 112.333C207.548 112.282 207.552 112.221 207.563 112.155C207.567 112.112 207.603 112.083 207.639 112.09C207.675 112.097 207.701 112.134 207.697 112.177C207.69 112.235 207.686 112.29 207.686 112.333C207.686 112.395 207.694 112.5 207.741 112.522C207.781 112.54 207.817 112.554 207.853 112.569C207.89 112.583 207.908 112.627 207.897 112.667C207.886 112.699 207.861 112.718 207.832 112.718ZM211.515 112.493C211.49 112.493 211.465 112.475 211.454 112.449C211.439 112.409 211.454 112.366 211.486 112.348C211.642 112.264 211.806 112.173 211.962 112.072C211.994 112.05 212.038 112.065 212.056 112.101C212.074 112.137 212.063 112.184 212.031 112.206C211.867 112.308 211.704 112.402 211.544 112.485C211.537 112.493 211.526 112.493 211.515 112.493ZM212.459 111.898C212.437 111.898 212.416 111.887 212.401 111.865C212.379 111.829 212.39 111.782 212.419 111.76C212.564 111.651 212.71 111.532 212.855 111.408C212.887 111.383 212.927 111.39 212.953 111.423C212.974 111.455 212.971 111.503 212.938 111.532C212.793 111.658 212.644 111.778 212.495 111.887C212.484 111.894 212.474 111.898 212.459 111.898ZM207.759 111.658C207.752 111.658 207.744 111.658 207.737 111.655C207.701 111.64 207.683 111.597 207.694 111.561C207.741 111.39 207.803 111.198 207.875 110.984C207.89 110.944 207.93 110.926 207.962 110.94C207.998 110.955 208.013 111.002 208.002 111.042C207.93 111.249 207.868 111.437 207.821 111.608C207.813 111.637 207.788 111.658 207.759 111.658ZM213.319 111.158C213.301 111.158 213.279 111.147 213.268 111.133C213.243 111.1 213.247 111.053 213.276 111.024C213.41 110.893 213.544 110.759 213.671 110.618C213.7 110.589 213.744 110.589 213.769 110.621C213.795 110.65 213.795 110.697 213.769 110.73C213.639 110.871 213.501 111.009 213.366 111.14C213.348 111.154 213.334 111.158 213.319 111.158ZM208.144 110.527C208.133 110.527 208.126 110.523 208.118 110.523C208.082 110.505 208.067 110.462 208.082 110.422C208.155 110.226 208.231 110.037 208.3 109.867C208.314 109.827 208.354 109.809 208.39 109.827C208.427 109.845 208.441 109.889 208.423 109.928C208.354 110.099 208.278 110.288 208.205 110.48C208.194 110.509 208.169 110.527 208.144 110.527ZM214.1 110.324C214.081 110.324 214.067 110.317 214.052 110.302C214.023 110.273 214.023 110.226 214.049 110.193C214.169 110.052 214.292 109.899 214.412 109.747C214.437 109.715 214.481 109.711 214.51 109.74C214.539 109.769 214.542 109.816 214.517 109.849C214.397 110.005 214.274 110.153 214.15 110.298C214.136 110.313 214.118 110.324 214.1 110.324ZM214.815 109.413C214.8 109.413 214.786 109.406 214.771 109.395C214.742 109.37 214.738 109.319 214.76 109.287C214.869 109.134 214.982 108.975 215.094 108.811C215.116 108.779 215.159 108.772 215.192 108.797C215.221 108.822 215.228 108.869 215.207 108.902C215.094 109.065 214.982 109.229 214.869 109.381C214.854 109.403 214.833 109.413 214.815 109.413ZM215.468 108.445C215.453 108.445 215.439 108.442 215.428 108.431C215.399 108.405 215.392 108.358 215.413 108.325C215.522 108.155 215.624 107.988 215.718 107.829C215.74 107.792 215.784 107.785 215.813 107.807C215.845 107.829 215.853 107.876 215.831 107.912C215.736 108.075 215.631 108.242 215.522 108.412C215.511 108.434 215.49 108.445 215.468 108.445ZM216.067 107.437C216.052 107.437 216.041 107.433 216.03 107.426C215.998 107.404 215.987 107.357 216.009 107.321C216.11 107.136 216.205 106.962 216.284 106.802C216.303 106.766 216.346 106.751 216.379 106.773C216.411 106.795 216.422 106.842 216.404 106.878C216.321 107.038 216.226 107.212 216.125 107.397C216.114 107.426 216.088 107.437 216.067 107.437ZM216.622 106.4C216.608 106.4 216.593 106.396 216.582 106.385C216.553 106.36 216.546 106.313 216.568 106.28C216.673 106.113 216.796 105.964 216.945 105.827C216.974 105.801 217.018 105.805 217.043 105.837C217.068 105.87 217.065 105.917 217.036 105.946C216.894 106.077 216.782 106.215 216.68 106.371C216.666 106.389 216.644 106.4 216.622 106.4ZM217.435 105.616C217.41 105.616 217.388 105.605 217.377 105.58C217.359 105.544 217.37 105.497 217.402 105.475C217.548 105.384 217.707 105.293 217.892 105.203C217.929 105.185 217.969 105.203 217.983 105.243C217.998 105.283 217.983 105.326 217.947 105.344C217.765 105.435 217.609 105.522 217.468 105.609C217.457 105.616 217.446 105.616 217.435 105.616ZM218.422 105.127C218.393 105.127 218.368 105.108 218.357 105.076C218.342 105.036 218.361 104.992 218.397 104.978C218.56 104.909 218.727 104.84 218.909 104.771C218.945 104.757 218.985 104.778 218.996 104.818C219.007 104.858 218.988 104.902 218.952 104.916C218.774 104.989 218.607 105.054 218.444 105.123C218.437 105.123 218.429 105.127 218.422 105.127ZM219.442 104.717C219.413 104.717 219.388 104.695 219.377 104.666C219.366 104.626 219.38 104.583 219.417 104.568C219.58 104.503 219.751 104.434 219.925 104.361C219.961 104.347 220.001 104.365 220.012 104.405C220.026 104.445 220.008 104.488 219.972 104.503C219.794 104.575 219.627 104.644 219.464 104.71C219.457 104.713 219.449 104.717 219.442 104.717ZM220.455 104.292C220.426 104.292 220.4 104.274 220.389 104.245C220.375 104.205 220.393 104.162 220.429 104.144C220.593 104.071 220.76 103.995 220.93 103.915C220.963 103.897 221.003 103.915 221.021 103.955C221.035 103.995 221.021 104.039 220.985 104.057C220.814 104.14 220.647 104.216 220.484 104.289C220.473 104.289 220.466 104.292 220.455 104.292ZM221.453 103.817C221.427 103.817 221.402 103.799 221.391 103.774C221.377 103.734 221.391 103.69 221.424 103.672C221.583 103.589 221.743 103.505 221.91 103.411C221.943 103.393 221.986 103.407 222.001 103.444C222.019 103.48 222.004 103.527 221.972 103.545C221.805 103.64 221.641 103.727 221.482 103.806C221.471 103.814 221.46 103.817 221.453 103.817ZM222.422 103.277C222.396 103.277 222.375 103.262 222.36 103.237C222.342 103.201 222.356 103.154 222.389 103.135C222.545 103.041 222.701 102.947 222.861 102.842C222.894 102.82 222.937 102.834 222.955 102.871C222.973 102.907 222.963 102.954 222.93 102.976C222.77 103.077 222.611 103.179 222.455 103.27C222.444 103.273 222.433 103.277 222.422 103.277ZM223.358 102.675C223.336 102.675 223.315 102.66 223.3 102.639C223.282 102.602 223.289 102.555 223.322 102.533C223.471 102.428 223.623 102.323 223.776 102.211C223.808 102.185 223.848 102.196 223.87 102.232C223.892 102.269 223.881 102.316 223.852 102.338C223.699 102.45 223.543 102.559 223.395 102.664C223.384 102.671 223.373 102.675 223.358 102.675ZM224.262 102.008C224.24 102.008 224.218 101.997 224.208 101.975C224.186 101.942 224.193 101.895 224.226 101.87C224.371 101.757 224.516 101.641 224.665 101.518C224.694 101.493 224.737 101.5 224.759 101.532C224.781 101.565 224.774 101.612 224.745 101.641C224.596 101.765 224.451 101.881 224.306 101.997C224.291 102.004 224.276 102.008 224.262 102.008ZM225.133 101.289C225.115 101.289 225.093 101.279 225.079 101.26C225.057 101.228 225.06 101.181 225.089 101.155C225.227 101.032 225.369 100.909 225.51 100.774C225.54 100.749 225.583 100.753 225.608 100.785C225.634 100.818 225.63 100.865 225.601 100.894C225.46 101.025 225.318 101.152 225.177 101.275C225.162 101.282 225.148 101.289 225.133 101.289ZM225.968 100.521C225.95 100.521 225.928 100.51 225.917 100.495C225.892 100.463 225.895 100.415 225.924 100.386C226.066 100.252 226.2 100.118 226.331 99.991C226.36 99.962 226.403 99.9657 226.425 99.9983C226.451 100.031 226.447 100.078 226.418 100.107C226.287 100.238 226.153 100.372 226.011 100.506C226 100.513 225.986 100.521 225.968 100.521ZM226.774 99.7154C226.755 99.7154 226.737 99.7082 226.723 99.69C226.697 99.6574 226.697 99.6102 226.726 99.5812C226.861 99.4398 226.991 99.2983 227.115 99.1641C227.14 99.1351 227.184 99.1351 227.213 99.1641C227.238 99.1968 227.238 99.2439 227.213 99.2729C227.089 99.4071 226.959 99.5486 226.821 99.6936C226.81 99.7082 226.792 99.7154 226.774 99.7154ZM227.547 98.8667C227.528 98.8667 227.514 98.8595 227.499 98.845C227.47 98.816 227.47 98.7688 227.499 98.7362C227.63 98.5875 227.75 98.4388 227.866 98.2973C227.891 98.2647 227.935 98.2611 227.964 98.2901C227.993 98.3191 227.993 98.3699 227.968 98.3989C227.851 98.5439 227.728 98.6926 227.597 98.8413C227.583 98.8595 227.565 98.8667 227.547 98.8667ZM228.272 97.9709C228.258 97.9709 228.24 97.9637 228.229 97.9528C228.2 97.9274 228.196 97.8766 228.222 97.844C228.338 97.688 228.45 97.5321 228.559 97.3797C228.585 97.3471 228.625 97.3398 228.657 97.3652C228.686 97.3906 228.693 97.4378 228.668 97.4704C228.559 97.6264 228.443 97.7859 228.327 97.9419C228.309 97.9637 228.291 97.9709 228.272 97.9709ZM228.937 97.0207C228.922 97.0207 228.908 97.0171 228.897 97.0062C228.864 96.9808 228.86 96.9336 228.882 96.901C228.984 96.7414 229.085 96.5818 229.191 96.4078C229.212 96.3715 229.256 96.3642 229.285 96.386C229.318 96.4078 229.325 96.4585 229.303 96.4912C229.198 96.6653 229.096 96.8285 228.991 96.9881C228.98 97.0098 228.958 97.0207 228.937 97.0207ZM229.546 96.0197C229.532 96.0197 229.521 96.0161 229.51 96.0088C229.477 95.9871 229.47 95.9399 229.488 95.9036C229.55 95.8021 229.608 95.6969 229.663 95.599L229.779 95.3959C229.8 95.3596 229.84 95.3487 229.873 95.3705C229.906 95.3959 229.913 95.4394 229.895 95.4757L229.779 95.6788C229.721 95.7803 229.663 95.8819 229.604 95.9871C229.59 96.0088 229.568 96.0197 229.546 96.0197ZM230.131 95.0078C230.116 95.0078 230.105 95.0042 230.091 94.9933C230.058 94.9679 230.051 94.9208 230.073 94.8881C230.185 94.7032 230.29 94.5436 230.396 94.3949C230.421 94.3622 230.461 94.3586 230.49 94.384C230.519 94.4094 230.523 94.4565 230.501 94.4928C230.399 94.6343 230.294 94.7938 230.185 94.9752C230.174 94.9969 230.153 95.0078 230.131 95.0078ZM230.809 94.0685C230.791 94.0685 230.773 94.0612 230.762 94.0467C230.733 94.0177 230.733 93.9669 230.762 93.9379C230.889 93.7928 231.024 93.6586 231.169 93.5281C231.198 93.5027 231.241 93.5063 231.263 93.539C231.289 93.5716 231.281 93.6187 231.252 93.6478C231.111 93.7747 230.984 93.9053 230.857 94.0467C230.846 94.0612 230.828 94.0685 230.809 94.0685ZM231.648 93.3105C231.626 93.3105 231.604 93.2996 231.59 93.2742C231.568 93.2379 231.579 93.1908 231.612 93.169C231.76 93.0675 231.924 92.9695 232.098 92.8825C232.134 92.8644 232.174 92.8825 232.189 92.9224C232.203 92.9623 232.189 93.0058 232.156 93.0239C231.989 93.1074 231.829 93.2017 231.684 93.3032C231.673 93.3068 231.659 93.3105 231.648 93.3105ZM232.631 92.81C232.602 92.81 232.577 92.7882 232.566 92.7592C232.555 92.7193 232.573 92.6758 232.61 92.6613C232.773 92.5996 232.947 92.5416 233.136 92.4872C233.172 92.4763 233.208 92.5017 233.219 92.5416C233.23 92.5815 233.208 92.625 233.169 92.6323C232.987 92.6867 232.813 92.7411 232.653 92.8027C232.646 92.8063 232.639 92.81 232.631 92.81ZM233.677 92.5017C233.644 92.5017 233.619 92.4763 233.608 92.44C233.6 92.4001 233.626 92.3602 233.662 92.3494C233.825 92.3095 234.003 92.2768 234.196 92.2406C234.232 92.2333 234.268 92.2623 234.276 92.3022C234.283 92.3421 234.257 92.382 234.221 92.3893C234.029 92.4255 233.855 92.4618 233.691 92.4981C233.688 92.5017 233.684 92.5017 233.677 92.5017ZM234.747 92.2986C234.715 92.2986 234.686 92.2732 234.678 92.2333C234.675 92.1934 234.7 92.1535 234.736 92.1463C234.918 92.1136 235.096 92.0882 235.274 92.0592C235.31 92.052 235.346 92.0846 235.35 92.1245C235.353 92.1644 235.328 92.2043 235.292 92.2115C235.114 92.2406 234.936 92.2659 234.755 92.295C234.755 92.2986 234.751 92.2986 234.747 92.2986ZM235.822 92.1281C235.789 92.1281 235.76 92.1027 235.753 92.0628C235.745 92.0193 235.771 91.9831 235.811 91.9758C235.992 91.9468 236.17 91.9178 236.344 91.8851C236.381 91.8779 236.417 91.9069 236.424 91.9468C236.431 91.9867 236.406 92.0266 236.366 92.0338C236.192 92.0665 236.01 92.0991 235.829 92.1281C235.829 92.1281 235.825 92.1281 235.822 92.1281ZM236.892 91.9214C236.86 91.9214 236.831 91.896 236.827 91.8634C236.82 91.8235 236.842 91.78 236.878 91.7727C237.07 91.7255 237.241 91.682 237.4 91.6313C237.437 91.6204 237.473 91.6421 237.484 91.682C237.495 91.7219 237.473 91.7654 237.437 91.7763C237.273 91.8271 237.099 91.8779 236.907 91.9214C236.9 91.9214 236.896 91.9214 236.892 91.9214ZM237.93 91.5841C237.905 91.5841 237.88 91.566 237.869 91.537C237.854 91.4971 237.872 91.4535 237.905 91.4354C238.079 91.3556 238.239 91.2649 238.377 91.167C238.409 91.1453 238.449 91.1525 238.471 91.1924C238.493 91.2251 238.482 91.2758 238.449 91.2976C238.308 91.3991 238.141 91.4971 237.956 91.5805C237.949 91.5805 237.938 91.5841 237.93 91.5841ZM238.834 90.9313C238.816 90.9313 238.798 90.9204 238.783 90.9059C238.758 90.8733 238.758 90.8261 238.787 90.7971C238.925 90.6593 239.055 90.5178 239.175 90.38C239.201 90.351 239.244 90.351 239.273 90.38C239.299 90.409 239.302 90.4562 239.273 90.4888C239.15 90.6266 239.019 90.7717 238.881 90.9095C238.867 90.924 238.849 90.9313 238.834 90.9313ZM239.589 90.0681C239.574 90.0681 239.556 90.0645 239.545 90.05C239.516 90.021 239.513 89.9738 239.538 89.9412C239.658 89.7852 239.77 89.6293 239.868 89.4733C239.89 89.4407 239.934 89.4334 239.963 89.4552C239.996 89.4806 240.003 89.5277 239.977 89.5603C239.872 89.7199 239.76 89.8795 239.636 90.0391C239.629 90.0572 239.611 90.0681 239.589 90.0681ZM240.224 89.0889C240.213 89.0889 240.202 89.0852 240.188 89.078C240.155 89.0562 240.144 89.0127 240.162 88.9764C240.253 88.7987 240.333 88.621 240.398 88.4433C240.413 88.4034 240.453 88.3853 240.489 88.4034C240.525 88.4215 240.54 88.4651 240.525 88.5049C240.456 88.6863 240.373 88.8713 240.279 89.0526C240.268 89.0744 240.246 89.0889 240.224 89.0889ZM240.634 87.9754C240.631 87.9754 240.623 87.9754 240.62 87.9718C240.583 87.9609 240.562 87.921 240.569 87.8775C240.613 87.6817 240.638 87.4858 240.645 87.2972C240.649 87.2537 240.681 87.2211 240.718 87.2247C240.758 87.2283 240.787 87.2646 240.783 87.3045C240.776 87.5039 240.747 87.7107 240.703 87.9138C240.696 87.9537 240.667 87.9754 240.634 87.9754ZM240.685 86.7786C240.652 86.7786 240.623 86.7532 240.616 86.7133C240.587 86.5175 240.536 86.3289 240.467 86.1548C240.453 86.1149 240.467 86.0714 240.504 86.0532C240.54 86.0351 240.58 86.0532 240.594 86.0931C240.667 86.2781 240.721 86.4812 240.754 86.6879C240.761 86.7278 240.736 86.7677 240.7 86.775C240.692 86.7786 240.689 86.7786 240.685 86.7786ZM240.195 85.7703C240.191 85.7703 240.188 85.7703 240.181 85.7703C240.025 85.7341 239.847 85.7087 239.651 85.6942C239.614 85.6905 239.585 85.6543 239.585 85.6144C239.589 85.5709 239.622 85.5418 239.658 85.5455C239.858 85.56 240.043 85.5854 240.202 85.6216C240.239 85.6325 240.264 85.6724 240.257 85.7123C240.257 85.7486 240.228 85.7703 240.195 85.7703Z" fill="#9E461A"/>
<path d="M208.601 109.399C208.59 109.399 208.579 109.395 208.572 109.392C208.539 109.374 208.525 109.326 208.539 109.29C208.612 109.12 208.659 109.015 208.659 109.015C208.677 108.975 208.717 108.964 208.75 108.982C208.782 109 208.797 109.047 208.782 109.083C208.782 109.083 208.735 109.185 208.663 109.355C208.652 109.384 208.626 109.399 208.601 109.399Z" fill="#9E461A"/>
<path d="M237.575 84.9325C237.56 84.9325 237.542 84.9289 237.531 84.9144C237.502 84.8854 237.498 84.8382 237.524 84.8056C237.524 84.802 237.596 84.704 237.673 84.5662C237.691 84.5299 237.734 84.5191 237.767 84.5408C237.8 84.5626 237.811 84.6097 237.792 84.646C237.709 84.7983 237.633 84.8999 237.629 84.9035C237.611 84.9216 237.593 84.9325 237.575 84.9325Z" fill="#9E461A"/>
<path d="M237.847 84.4176C237.84 84.4176 237.829 84.4139 237.821 84.4139C237.785 84.3994 237.771 84.3559 237.782 84.316C237.807 84.2362 237.825 84.1637 237.836 84.0948C237.796 84.0766 237.723 84.044 237.633 84.0077C237.596 83.9932 237.578 83.9497 237.593 83.9098C237.607 83.8699 237.644 83.8518 237.68 83.8663C237.847 83.9352 237.934 83.9787 237.938 83.9823C237.963 83.9969 237.977 84.0259 237.977 84.0549C237.974 84.1528 237.952 84.2616 237.912 84.374C237.901 84.3994 237.876 84.4176 237.847 84.4176Z" fill="#9E461A"/>
<path d="M205.168 111.017C205.099 111.017 205.044 110.98 205.019 110.911C204.979 110.821 204.946 110.73 204.91 110.639C204.895 110.599 204.913 110.556 204.946 110.541C204.979 110.527 205.019 110.545 205.037 110.581C205.07 110.668 205.106 110.759 205.142 110.846C205.149 110.864 205.164 110.893 205.305 110.81C205.338 110.792 205.382 110.806 205.4 110.842C205.418 110.879 205.403 110.926 205.371 110.944C205.284 110.995 205.222 111.017 205.168 111.017ZM205.781 110.599C205.759 110.599 205.741 110.589 205.726 110.57C205.701 110.538 205.705 110.491 205.734 110.462C205.853 110.349 205.991 110.211 206.14 110.055C206.169 110.026 206.209 110.026 206.238 110.059C206.264 110.092 206.264 110.139 206.235 110.168C206.086 110.327 205.944 110.465 205.824 110.581C205.81 110.596 205.795 110.599 205.781 110.599ZM204.79 110.113C204.761 110.113 204.732 110.092 204.725 110.059C204.674 109.86 204.63 109.656 204.598 109.457C204.59 109.413 204.616 109.377 204.652 109.37C204.688 109.363 204.725 109.392 204.732 109.432C204.765 109.627 204.805 109.827 204.855 110.019C204.866 110.059 204.844 110.103 204.808 110.113C204.801 110.11 204.794 110.113 204.79 110.113ZM206.579 109.758C206.561 109.758 206.543 109.751 206.532 109.736C206.507 109.707 206.507 109.656 206.532 109.627C206.666 109.475 206.797 109.326 206.913 109.185C206.939 109.156 206.982 109.152 207.011 109.181C207.04 109.21 207.04 109.258 207.015 109.29C206.895 109.428 206.764 109.58 206.63 109.733C206.616 109.751 206.598 109.758 206.579 109.758ZM204.598 108.909C204.561 108.909 204.532 108.877 204.529 108.837C204.525 108.732 204.521 108.623 204.521 108.521C204.521 108.42 204.525 108.318 204.529 108.217C204.532 108.173 204.561 108.137 204.601 108.144C204.638 108.148 204.667 108.184 204.667 108.224C204.663 108.322 204.659 108.42 204.659 108.521C204.659 108.623 204.663 108.724 204.667 108.83C204.67 108.873 204.638 108.909 204.601 108.909C204.601 108.906 204.601 108.909 204.598 108.909ZM204.659 107.687C204.656 107.687 204.652 107.687 204.649 107.687C204.612 107.68 204.587 107.64 204.594 107.6C204.623 107.401 204.667 107.197 204.717 106.998C204.728 106.958 204.765 106.933 204.801 106.944C204.837 106.954 204.859 106.998 204.848 107.038C204.797 107.23 204.757 107.43 204.728 107.625C204.721 107.662 204.692 107.687 204.659 107.687ZM204.957 106.512C204.95 106.512 204.942 106.512 204.932 106.508C204.895 106.494 204.881 106.45 204.892 106.41C204.961 106.222 205.037 106.033 205.12 105.845C205.138 105.808 205.178 105.794 205.215 105.812C205.247 105.83 205.262 105.877 205.244 105.914C205.16 106.095 205.084 106.28 205.022 106.465C205.011 106.494 204.986 106.512 204.957 106.512ZM205.454 105.42C205.443 105.42 205.429 105.417 205.418 105.409C205.385 105.388 205.374 105.341 205.396 105.304C205.491 105.134 205.596 104.96 205.705 104.793C205.726 104.76 205.77 104.753 205.803 104.775C205.832 104.8 205.839 104.847 205.817 104.884C205.708 105.047 205.607 105.217 205.512 105.384C205.498 105.406 205.476 105.42 205.454 105.42ZM206.104 104.43C206.086 104.43 206.071 104.427 206.06 104.412C206.031 104.383 206.028 104.336 206.053 104.303C206.173 104.147 206.296 103.995 206.427 103.846C206.452 103.817 206.496 103.817 206.525 103.846C206.554 103.875 206.554 103.926 206.525 103.955C206.398 104.1 206.274 104.253 206.158 104.405C206.14 104.423 206.122 104.43 206.104 104.43ZM206.87 103.556C206.852 103.556 206.833 103.549 206.819 103.531C206.794 103.498 206.797 103.451 206.826 103.422C206.964 103.284 207.106 103.15 207.251 103.027C207.28 102.998 207.323 103.005 207.345 103.038C207.367 103.07 207.363 103.117 207.334 103.146C207.193 103.27 207.051 103.404 206.917 103.538C206.902 103.553 206.888 103.556 206.87 103.556ZM207.734 102.798C207.712 102.798 207.69 102.787 207.675 102.766C207.654 102.729 207.661 102.682 207.694 102.657C207.832 102.552 207.969 102.45 208.107 102.356L208.158 102.323C208.191 102.301 208.231 102.312 208.253 102.348C208.274 102.385 208.263 102.432 208.231 102.457L208.18 102.49C208.042 102.584 207.908 102.682 207.773 102.787C207.759 102.795 207.748 102.798 207.734 102.798ZM208.659 102.142C208.637 102.142 208.615 102.131 208.601 102.105C208.579 102.069 208.59 102.022 208.623 102C208.782 101.884 208.935 101.772 209.076 101.659C209.109 101.634 209.149 101.645 209.171 101.677C209.193 101.71 209.185 101.761 209.156 101.783C209.015 101.895 208.859 102.008 208.699 102.127C208.688 102.138 208.674 102.142 208.659 102.142ZM209.559 101.438C209.537 101.438 209.519 101.427 209.505 101.409C209.483 101.376 209.487 101.329 209.516 101.304C209.664 101.173 209.806 101.043 209.937 100.916C209.966 100.887 210.009 100.89 210.035 100.923C210.06 100.956 210.056 101.003 210.027 101.032C209.897 101.162 209.751 101.293 209.603 101.424C209.588 101.434 209.574 101.438 209.559 101.438ZM210.379 100.626C210.361 100.626 210.347 100.618 210.332 100.604C210.303 100.575 210.303 100.528 210.329 100.495C210.456 100.35 210.572 100.201 210.688 100.042C210.71 100.009 210.753 100.006 210.782 100.031C210.811 100.056 210.815 100.103 210.793 100.136C210.673 100.299 210.554 100.452 210.427 100.6C210.416 100.618 210.394 100.626 210.379 100.626ZM211.073 99.6791C211.058 99.6791 211.044 99.6755 211.033 99.6646C211 99.6392 210.993 99.5921 211.018 99.5594C211.109 99.4144 211.203 99.2548 211.323 99.0553C211.345 99.019 211.385 99.0118 211.417 99.0335C211.45 99.0553 211.457 99.1025 211.436 99.1387C211.319 99.3418 211.221 99.505 211.127 99.6501C211.113 99.6682 211.094 99.6791 211.073 99.6791ZM211.671 98.6564C211.657 98.6564 211.646 98.6527 211.635 98.6455C211.603 98.6237 211.595 98.5766 211.613 98.5403C211.675 98.4351 211.737 98.3263 211.798 98.2139C211.835 98.1522 211.871 98.0869 211.907 98.0253C211.929 97.989 211.969 97.9818 212.002 98.0035C212.034 98.0253 212.042 98.0724 212.023 98.1087C211.987 98.1704 211.951 98.2356 211.915 98.2973C211.849 98.4097 211.788 98.5185 211.73 98.6201C211.719 98.6455 211.693 98.6564 211.671 98.6564ZM212.274 97.63C212.259 97.63 212.249 97.6263 212.234 97.6155C212.201 97.5901 212.194 97.5429 212.216 97.5103C212.321 97.3398 212.426 97.173 212.532 97.0062C212.553 96.9735 212.597 96.9626 212.626 96.988C212.659 97.0134 212.662 97.0606 212.641 97.0968C212.535 97.26 212.43 97.4269 212.328 97.5973C212.317 97.6191 212.296 97.63 212.274 97.63ZM212.913 96.6362C212.898 96.6362 212.884 96.6326 212.873 96.6217C212.844 96.5963 212.837 96.5492 212.858 96.5129C212.971 96.3497 213.08 96.1865 213.192 96.0269C213.214 95.9943 213.258 95.987 213.287 96.0124C213.316 96.0378 213.323 96.0849 213.297 96.1212C213.185 96.2808 213.076 96.444 212.964 96.6072C212.953 96.6253 212.931 96.6362 212.913 96.6362ZM213.588 95.6715C213.573 95.6715 213.559 95.6642 213.544 95.6534C213.515 95.628 213.512 95.5808 213.533 95.5446C213.653 95.385 213.769 95.229 213.889 95.0731C213.914 95.0404 213.958 95.0368 213.983 95.0658C214.012 95.0912 214.016 95.142 213.991 95.1746C213.871 95.3306 213.755 95.4829 213.639 95.6425C213.628 95.6606 213.61 95.6715 213.588 95.6715ZM214.303 94.743C214.285 94.743 214.27 94.7358 214.256 94.7213C214.227 94.6923 214.227 94.6451 214.252 94.6125C214.375 94.4601 214.502 94.3078 214.626 94.1627C214.651 94.1337 214.695 94.1301 214.724 94.1591C214.753 94.1881 214.753 94.2353 214.727 94.2679C214.604 94.413 214.481 94.5653 214.357 94.7176C214.343 94.7322 214.325 94.743 214.303 94.743ZM215.058 93.8508C215.04 93.8508 215.021 93.8436 215.011 93.8291C214.985 93.8001 214.981 93.7529 215.011 93.7203C215.141 93.5752 215.272 93.4301 215.402 93.2887C215.432 93.2597 215.475 93.2597 215.5 93.2923C215.526 93.325 215.526 93.3721 215.497 93.4011C215.366 93.5389 215.236 93.684 215.105 93.8291C215.094 93.8436 215.076 93.8508 215.058 93.8508ZM215.853 93.0058C215.834 93.0058 215.816 92.9985 215.802 92.9804C215.776 92.9478 215.78 92.9006 215.805 92.8716C215.943 92.7338 216.081 92.596 216.219 92.4654C216.248 92.4364 216.292 92.44 216.317 92.4726C216.343 92.5053 216.339 92.5524 216.31 92.5815C216.176 92.712 216.038 92.8462 215.9 92.984C215.885 92.9985 215.871 93.0058 215.853 93.0058ZM216.684 92.2043C216.666 92.2043 216.644 92.1934 216.629 92.1752C216.607 92.1426 216.611 92.0955 216.64 92.0664C216.782 91.9359 216.927 91.8089 217.072 91.6856C217.101 91.6602 217.145 91.6675 217.17 91.7001C217.192 91.7328 217.188 91.7836 217.159 91.8089C217.018 91.9323 216.872 92.0556 216.731 92.1898C216.716 92.2006 216.698 92.2043 216.684 92.2043ZM217.555 91.4571C217.533 91.4571 217.511 91.4463 217.5 91.4245C217.479 91.3919 217.486 91.3447 217.515 91.3193C217.664 91.196 217.816 91.08 217.965 90.9639C217.998 90.9385 218.037 90.9494 218.059 90.982C218.081 91.0183 218.074 91.0654 218.041 91.0908C217.892 91.2069 217.743 91.323 217.595 91.4426C217.58 91.4499 217.569 91.4571 217.555 91.4571ZM218.458 90.7608C218.437 90.7608 218.415 90.7463 218.4 90.7245C218.379 90.6883 218.39 90.6411 218.422 90.6194C218.578 90.5069 218.734 90.3981 218.89 90.2929C218.923 90.2712 218.967 90.2821 218.985 90.3183C219.003 90.3546 218.996 90.4017 218.963 90.4235C218.811 90.5287 218.654 90.6375 218.498 90.7463C218.484 90.7572 218.469 90.7608 218.458 90.7608ZM219.398 90.1261C219.373 90.1261 219.351 90.1116 219.34 90.0898C219.322 90.0536 219.333 90.0064 219.366 89.9847C219.529 89.8831 219.689 89.7816 219.849 89.6873C219.881 89.6691 219.925 89.6836 219.939 89.7199C219.957 89.7562 219.943 89.8033 219.91 89.8215C219.751 89.9158 219.591 90.0137 219.431 90.1152C219.42 90.1225 219.409 90.1261 219.398 90.1261ZM220.368 89.5494C220.342 89.5494 220.317 89.5349 220.306 89.5059C220.288 89.466 220.302 89.4225 220.339 89.4044C220.505 89.3101 220.672 89.223 220.836 89.1396C220.868 89.1215 220.912 89.1396 220.926 89.1759C220.941 89.2158 220.926 89.2593 220.894 89.2774C220.73 89.3609 220.567 89.4479 220.4 89.5422C220.389 89.5494 220.375 89.5494 220.368 89.5494ZM221.366 89.0381C221.34 89.0381 221.315 89.0199 221.304 88.9909C221.289 88.951 221.304 88.9075 221.34 88.8894C221.511 88.8096 221.681 88.7334 221.852 88.6572C221.888 88.6427 221.928 88.6609 221.939 88.7008C221.954 88.7407 221.935 88.7842 221.899 88.7987C221.732 88.8712 221.562 88.9474 221.391 89.0272C221.384 89.0381 221.373 89.0381 221.366 89.0381ZM222.389 88.5956C222.36 88.5956 222.335 88.5775 222.324 88.5448C222.309 88.5049 222.331 88.4614 222.367 88.4469C222.545 88.378 222.719 88.3127 222.89 88.251C222.926 88.2365 222.963 88.2583 222.977 88.2982C222.988 88.3381 222.97 88.3816 222.934 88.3925C222.763 88.4541 222.589 88.5194 222.415 88.5883C222.404 88.5956 222.396 88.5956 222.389 88.5956ZM223.438 88.222C223.409 88.222 223.38 88.2003 223.373 88.1676C223.362 88.1277 223.384 88.0842 223.42 88.0733C223.601 88.0153 223.779 87.9609 223.953 87.9138C223.99 87.9029 224.026 87.9283 224.037 87.9682C224.048 88.0081 224.022 88.0516 223.986 88.0625C223.812 88.1096 223.638 88.164 223.456 88.222C223.449 88.222 223.442 88.222 223.438 88.222ZM224.501 87.9246C224.469 87.9246 224.44 87.8992 224.433 87.8666C224.425 87.8267 224.447 87.7832 224.483 87.7759C224.665 87.7324 224.846 87.6925 225.024 87.6563C225.06 87.649 225.097 87.6744 225.104 87.7179C225.111 87.7614 225.086 87.8013 225.05 87.8086C224.872 87.8448 224.69 87.8847 224.512 87.9283C224.512 87.9246 224.505 87.9246 224.501 87.9246ZM225.583 87.7034C225.55 87.7034 225.521 87.6744 225.514 87.6381C225.507 87.5982 225.536 87.5583 225.572 87.5511C225.637 87.5402 225.703 87.5293 225.765 87.5184C225.884 87.5003 226 87.4822 226.113 87.4604C226.149 87.4531 226.186 87.4822 226.193 87.5221C226.2 87.5656 226.175 87.6018 226.135 87.6091C226.022 87.6309 225.902 87.649 225.783 87.6671C225.721 87.678 225.656 87.6853 225.59 87.6961C225.59 87.7034 225.587 87.7034 225.583 87.7034ZM226.665 87.5039C226.632 87.5039 226.603 87.4785 226.599 87.4423C226.592 87.4024 226.614 87.3625 226.654 87.3516C226.835 87.3081 227.013 87.2573 227.184 87.2065C227.22 87.1956 227.26 87.221 227.267 87.2573C227.278 87.3008 227.256 87.3407 227.22 87.3516C227.049 87.4024 226.868 87.4531 226.683 87.4967C226.675 87.5039 226.672 87.5039 226.665 87.5039ZM227.721 87.1775C227.692 87.1775 227.666 87.1557 227.655 87.1267C227.641 87.0868 227.663 87.0433 227.695 87.0288C227.87 86.9599 228.037 86.8837 228.196 86.8003C228.229 86.7822 228.272 86.7967 228.287 86.8366C228.301 86.8765 228.287 86.92 228.254 86.9381C228.091 87.0216 227.92 87.1013 227.743 87.1739C227.735 87.1739 227.728 87.1775 227.721 87.1775ZM228.712 86.6552C228.69 86.6552 228.664 86.6407 228.654 86.619C228.635 86.5827 228.646 86.5356 228.679 86.5138C228.831 86.4123 228.98 86.2998 229.129 86.1765C229.158 86.1511 229.202 86.1584 229.223 86.191C229.245 86.2237 229.242 86.2708 229.209 86.2998C229.056 86.4268 228.908 86.5392 228.748 86.6444C228.737 86.6552 228.726 86.6552 228.712 86.6552ZM229.59 85.9299C229.572 85.9299 229.554 85.919 229.539 85.9045C229.514 85.8719 229.517 85.8247 229.546 85.7957C229.688 85.6543 229.822 85.5128 229.946 85.3786C229.975 85.3496 230.015 85.3496 230.044 85.3822C230.069 85.4113 230.069 85.462 230.04 85.491C229.917 85.6252 229.782 85.7667 229.637 85.9118C229.623 85.9226 229.608 85.9299 229.59 85.9299ZM230.388 85.0885C230.37 85.0885 230.352 85.0812 230.338 85.0631C230.312 85.0304 230.312 84.9833 230.341 84.9543C230.497 84.7947 230.628 84.6678 230.762 84.5517C230.791 84.5263 230.835 84.5299 230.857 84.5662C230.882 84.5989 230.875 84.646 230.846 84.675C230.715 84.7874 230.584 84.9144 230.432 85.0703C230.421 85.0812 230.407 85.0885 230.388 85.0885ZM231.256 84.3413C231.23 84.3413 231.209 84.3268 231.198 84.3051C231.18 84.2688 231.19 84.2217 231.22 84.1999C231.379 84.0911 231.539 83.9968 231.713 83.9134C231.749 83.8952 231.789 83.9134 231.804 83.9533C231.818 83.9932 231.804 84.0367 231.771 84.0548C231.604 84.1382 231.448 84.2289 231.292 84.3305C231.281 84.3377 231.267 84.3413 231.256 84.3413ZM232.254 83.8445C232.225 83.8445 232.199 83.8263 232.189 83.7937C232.178 83.7538 232.196 83.7103 232.232 83.6994C232.323 83.6668 232.417 83.6377 232.515 83.6087C232.599 83.5833 232.682 83.5616 232.766 83.5398C232.802 83.5289 232.838 83.5543 232.849 83.5979C232.856 83.6414 232.835 83.6813 232.798 83.6885C232.715 83.7103 232.635 83.732 232.552 83.7574C232.457 83.7864 232.363 83.8155 232.276 83.8481C232.268 83.8409 232.261 83.8445 232.254 83.8445ZM237.132 83.8227C237.125 83.8227 237.121 83.8227 237.114 83.8191C236.943 83.7647 236.765 83.7175 236.584 83.674C236.548 83.6668 236.522 83.6232 236.533 83.5833C236.54 83.5398 236.577 83.5144 236.613 83.5253C236.794 83.5688 236.976 83.6196 237.15 83.674C237.186 83.6849 237.208 83.7284 237.197 83.7683C237.19 83.801 237.161 83.8227 237.132 83.8227ZM233.321 83.5688C233.288 83.5688 233.259 83.5435 233.256 83.5036C233.248 83.46 233.274 83.4238 233.314 83.4165C233.495 83.3839 233.68 83.3585 233.862 83.3403C233.898 83.3331 233.934 83.3657 233.938 83.4093C233.942 83.4528 233.913 83.4891 233.876 83.4927C233.695 83.5108 233.513 83.5362 233.335 83.5688C233.328 83.5652 233.325 83.5688 233.321 83.5688ZM236.058 83.5652C236.054 83.5652 236.05 83.5652 236.047 83.5652C235.865 83.5326 235.684 83.5108 235.506 83.4927C235.47 83.4891 235.441 83.4528 235.444 83.4093C235.448 83.3657 235.48 83.3367 235.52 83.3403C235.702 83.3585 235.887 83.3839 236.068 83.4165C236.105 83.4238 236.13 83.46 236.127 83.5036C236.119 83.5398 236.09 83.5652 236.058 83.5652ZM234.965 83.4528C234.787 83.4455 234.606 83.4455 234.417 83.4528C234.373 83.4564 234.348 83.4201 234.348 83.3802C234.348 83.3367 234.377 83.3041 234.413 83.3005C234.602 83.2932 234.787 83.2968 234.969 83.3005C235.005 83.3041 235.038 83.3367 235.034 83.3802C235.034 83.4201 235.001 83.4528 234.965 83.4528Z" fill="#9E461A"/>
<path d="M207.356 108.844C207.342 108.844 207.323 108.837 207.309 108.822C207.28 108.793 207.28 108.746 207.305 108.713C207.418 108.576 207.487 108.489 207.487 108.489C207.512 108.456 207.556 108.456 207.585 108.481C207.614 108.51 207.614 108.558 207.592 108.59C207.592 108.59 207.523 108.677 207.407 108.815C207.392 108.837 207.374 108.844 207.356 108.844Z" fill="#9E461A"/>
</g>
<g opacity="0.6">
<path d="M203.157 133.836C201.146 133.836 199.698 133.379 199.081 132.552C197.742 130.757 198.703 125.506 201.473 119.481C204.921 111.981 210.644 104.303 217.595 97.8548C230.254 86.1112 242.786 82.9777 248.198 82.9777C249.973 82.9777 251.189 83.2968 251.617 83.8735C253.217 86.0169 249.49 103.371 233.107 118.571C221.732 129.118 209.868 133.836 203.157 133.836ZM248.194 83.344C242.837 83.344 230.417 86.4558 217.841 98.1232C201.934 112.881 197.139 129.336 199.375 132.331C199.923 133.064 201.266 133.47 203.157 133.47C209.799 133.47 221.558 128.777 232.853 118.299C248.782 103.52 252.825 86.1076 251.319 84.0875C250.971 83.6232 249.802 83.344 248.194 83.344Z" fill="#9E461A"/>
</g>
<path d="M235.978 88.9221C235.72 89.1614 235.335 89.1215 235.121 88.835C234.907 88.5485 234.943 88.1205 235.201 87.8812C235.459 87.6418 235.84 87.6817 236.054 87.9682C236.268 88.2547 236.232 88.6791 235.978 88.9221Z" fill="#CC5B29"/>
<path d="M235.589 89.2594C235.35 89.2594 235.125 89.1433 234.976 88.9402C234.707 88.5811 234.755 88.0444 235.078 87.7433C235.401 87.4423 235.934 87.4967 236.203 87.8558C236.475 88.2185 236.431 88.7443 236.101 89.0526C235.96 89.1868 235.775 89.2594 235.589 89.2594ZM235.586 87.9066C235.491 87.9066 235.401 87.9428 235.324 88.0154C235.139 88.1894 235.11 88.5122 235.266 88.7226C235.412 88.9148 235.677 88.9438 235.851 88.7842C236.039 88.6065 236.065 88.2874 235.905 88.077C235.825 87.9682 235.709 87.9066 235.586 87.9066Z" fill="#773C12"/>
<path d="M233.267 86.0787C233.027 86.3035 232.668 86.2636 232.468 85.9989C232.269 85.7305 232.301 85.3315 232.541 85.1103C232.78 84.8855 233.14 84.9253 233.339 85.1901C233.542 85.4549 233.506 85.8538 233.267 86.0787Z" fill="#CC5B29"/>
<path d="M232.907 86.4087C232.679 86.4087 232.468 86.2999 232.323 86.1076C232.069 85.7667 232.112 85.259 232.417 84.9725C232.726 84.6859 233.23 84.7367 233.488 85.0776C233.742 85.4186 233.698 85.9263 233.394 86.2128C233.256 86.3361 233.085 86.4087 232.907 86.4087ZM232.904 85.1429C232.817 85.1429 232.737 85.1756 232.668 85.2372C232.497 85.3968 232.472 85.6942 232.617 85.8828C232.748 86.0569 232.987 86.0859 233.143 85.9408C233.314 85.7849 233.339 85.4875 233.194 85.2952C233.121 85.1973 233.016 85.1429 232.904 85.1429Z" fill="#773C12"/>
<path d="M229.782 87.7796C229.514 88.0298 229.115 87.9899 228.889 87.6889C228.664 87.3879 228.704 86.9418 228.969 86.6952C229.238 86.4449 229.637 86.4848 229.862 86.7858C230.087 87.0869 230.051 87.533 229.782 87.7796Z" fill="#CC5B29"/>
<path d="M229.379 88.1278C229.133 88.1278 228.9 88.0081 228.744 87.7978C228.465 87.4242 228.512 86.8693 228.85 86.561C229.183 86.2491 229.735 86.3035 230.015 86.6771C230.29 87.0506 230.247 87.6055 229.909 87.9138C229.761 88.0516 229.572 88.1278 229.379 88.1278ZM229.376 86.717C229.274 86.717 229.176 86.7569 229.096 86.8294C228.893 87.018 228.868 87.3553 229.038 87.5801C229.191 87.7832 229.474 87.8159 229.659 87.6454C229.862 87.4568 229.888 87.1195 229.717 86.8947C229.633 86.7822 229.506 86.717 229.376 86.717Z" fill="#773C12"/>
<path d="M226.04 89.9991C225.754 90.2675 225.325 90.2204 225.089 89.9012C224.85 89.5821 224.89 89.1033 225.177 88.8386C225.463 88.5702 225.891 88.6137 226.131 88.9329C226.367 89.2556 226.327 89.7307 226.04 89.9991Z" fill="#CC5B29"/>
<path d="M225.608 90.3582C225.347 90.3582 225.104 90.2313 224.941 90.0137C224.647 89.622 224.697 89.0344 225.05 88.708C225.405 88.3816 225.982 88.4396 226.273 88.8313C226.567 89.223 226.516 89.8106 226.164 90.137C226.008 90.2784 225.812 90.3582 225.608 90.3582ZM225.608 88.8495C225.496 88.8495 225.387 88.893 225.3 88.9764C225.079 89.1795 225.05 89.5458 225.235 89.7924C225.402 90.0173 225.714 90.0499 225.917 89.865C226.138 89.6619 226.167 89.2919 225.982 89.0453C225.888 88.922 225.75 88.8495 225.608 88.8495Z" fill="#773C12"/>
<path d="M222.182 92.5995C221.896 92.8643 221.467 92.8208 221.228 92.5016C220.988 92.1825 221.028 91.7073 221.315 91.439C221.602 91.1742 222.03 91.2177 222.269 91.5369C222.505 91.856 222.469 92.3312 222.182 92.5995Z" fill="#CC5B29"/>
<path d="M221.747 92.955C221.485 92.955 221.242 92.8281 221.079 92.6105C220.785 92.2188 220.836 91.6349 221.188 91.3048C221.544 90.9784 222.121 91.0364 222.411 91.4281C222.705 91.8198 222.654 92.4074 222.302 92.7338C222.15 92.8752 221.954 92.955 221.747 92.955ZM221.747 91.4463C221.634 91.4463 221.529 91.4898 221.438 91.5696C221.217 91.7763 221.188 92.1426 221.373 92.3892C221.54 92.6141 221.852 92.6504 222.055 92.4618C222.277 92.2587 222.306 91.8887 222.121 91.6421C222.026 91.5188 221.892 91.4463 221.747 91.4463Z" fill="#773C12"/>
<path d="M218.277 95.657C217.972 95.9399 217.515 95.8964 217.261 95.5554C217.003 95.2145 217.047 94.7068 217.355 94.4203C217.66 94.1374 218.117 94.1809 218.371 94.5254C218.625 94.8664 218.582 95.3741 218.277 95.657Z" fill="#CC5B29"/>
<path d="M217.816 96.0269C217.544 96.0269 217.286 95.8964 217.112 95.6643C216.804 95.2508 216.854 94.6306 217.228 94.2861C217.598 93.9415 218.208 94.0032 218.517 94.413C218.825 94.8265 218.774 95.4467 218.4 95.7912C218.237 95.9435 218.03 96.0269 217.816 96.0269ZM217.813 94.4166C217.689 94.4166 217.573 94.4638 217.475 94.5545C217.235 94.7757 217.203 95.1747 217.402 95.443C217.584 95.6897 217.929 95.7259 218.146 95.5228C218.386 95.3016 218.419 94.9026 218.219 94.6343C218.121 94.4964 217.972 94.4166 217.813 94.4166Z" fill="#773C12"/>
<path d="M214.742 98.9212C214.43 99.2113 213.962 99.1642 213.7 98.8124C213.439 98.4642 213.482 97.9456 213.795 97.6518C214.107 97.3616 214.575 97.4088 214.836 97.7606C215.098 98.1124 215.054 98.631 214.742 98.9212Z" fill="#CC5B29"/>
<path d="M214.267 99.2947C213.987 99.2947 213.726 99.1606 213.552 98.9248C213.236 98.5041 213.29 97.873 213.668 97.5212C214.049 97.1694 214.669 97.2311 214.982 97.6518C215.297 98.0725 215.243 98.7036 214.865 99.0554C214.698 99.2113 214.484 99.2947 214.267 99.2947ZM214.267 97.6482C214.139 97.6482 214.02 97.6953 213.918 97.7896C213.671 98.0181 213.639 98.4316 213.845 98.7072C214.034 98.9611 214.39 99.001 214.615 98.7906C214.862 98.5621 214.894 98.1523 214.688 97.873C214.582 97.728 214.43 97.6482 214.267 97.6482Z" fill="#773C12"/>
<path d="M211.381 102.374C211.047 102.686 210.546 102.635 210.267 102.262C209.987 101.888 210.035 101.329 210.369 101.018C210.706 100.706 211.203 100.756 211.483 101.134C211.762 101.507 211.715 102.066 211.381 102.374Z" fill="#CC5B29"/>
<path d="M210.873 102.762C210.579 102.762 210.303 102.621 210.118 102.37C209.784 101.924 209.842 101.257 210.241 100.883C210.641 100.513 211.298 100.579 211.628 101.021C211.962 101.467 211.907 102.135 211.505 102.508C211.33 102.675 211.105 102.762 210.873 102.762ZM210.873 100.999C210.731 100.999 210.601 101.054 210.492 101.155C210.223 101.406 210.187 101.855 210.412 102.156C210.619 102.432 211.007 102.475 211.258 102.243C211.526 101.997 211.563 101.547 211.338 101.246C211.218 101.086 211.051 100.999 210.873 100.999Z" fill="#773C12"/>
<path d="M207.9 106.57C207.563 106.882 207.062 106.831 206.786 106.454C206.507 106.081 206.554 105.522 206.888 105.21C207.225 104.898 207.723 104.949 208.002 105.323C208.282 105.703 208.238 106.258 207.9 106.57Z" fill="#CC5B29"/>
<path d="M207.396 106.958C207.102 106.958 206.826 106.817 206.641 106.566C206.307 106.12 206.362 105.453 206.764 105.079C207.167 104.706 207.821 104.771 208.151 105.217C208.485 105.663 208.43 106.331 208.028 106.704C207.85 106.867 207.625 106.958 207.396 106.958ZM207.392 105.192C207.251 105.192 207.12 105.246 207.011 105.348C206.743 105.598 206.706 106.044 206.931 106.349C207.138 106.628 207.527 106.668 207.777 106.436C208.046 106.186 208.082 105.74 207.857 105.439C207.741 105.283 207.57 105.192 207.392 105.192Z" fill="#773C12"/>
<path d="M232.755 90.6593C232.515 90.8805 232.156 90.8443 231.956 90.5759C231.757 90.3075 231.789 89.9085 232.029 89.6873C232.268 89.4624 232.628 89.4987 232.827 89.7671C233.027 90.0355 232.994 90.4344 232.755 90.6593Z" fill="#CC5B29"/>
<path d="M232.392 90.9857C232.163 90.9857 231.953 90.8769 231.808 90.6847C231.55 90.3365 231.59 89.8397 231.902 89.5531C232.21 89.2666 232.715 89.3174 232.973 89.6583C233.23 90.0029 233.19 90.4997 232.878 90.7899C232.744 90.9168 232.57 90.9857 232.392 90.9857ZM232.392 89.7236C232.305 89.7236 232.221 89.7562 232.156 89.8215C231.985 89.9811 231.964 90.2749 232.105 90.4671C232.236 90.6448 232.475 90.6702 232.631 90.5251C232.806 90.3656 232.827 90.0754 232.682 89.8796C232.606 89.778 232.501 89.7236 232.392 89.7236Z" fill="#773C12"/>
<path d="M229.078 93.0095C228.813 93.2525 228.425 93.2126 228.207 92.9188C227.989 92.625 228.026 92.1898 228.287 91.9505C228.548 91.7075 228.94 91.7437 229.158 92.0375C229.376 92.3313 229.343 92.7665 229.078 93.0095Z" fill="#CC5B29"/>
<path d="M228.683 93.3504C228.439 93.3504 228.214 93.2343 228.058 93.0276C227.786 92.6649 227.83 92.1173 228.16 91.8126C228.49 91.508 229.031 91.5588 229.303 91.9251C229.575 92.2914 229.528 92.8354 229.202 93.14C229.06 93.2779 228.875 93.3504 228.683 93.3504ZM228.683 91.9722C228.585 91.9722 228.49 92.0121 228.41 92.081C228.218 92.2587 228.193 92.5924 228.352 92.81C228.501 93.0095 228.773 93.0385 228.951 92.8753C229.147 92.6939 229.173 92.3675 229.009 92.1463C228.929 92.0375 228.81 91.9722 228.683 91.9722Z" fill="#773C12"/>
<path d="M225.471 95.4105C225.202 95.6571 224.806 95.6172 224.585 95.3198C224.364 95.0224 224.4 94.5799 224.669 94.3297C224.937 94.0831 225.333 94.123 225.554 94.4204C225.775 94.7214 225.739 95.1639 225.471 95.4105Z" fill="#CC5B29"/>
<path d="M225.071 95.7586C224.825 95.7586 224.596 95.6389 224.44 95.4322C224.164 95.0623 224.211 94.5074 224.545 94.1991C224.879 93.8908 225.427 93.9452 225.703 94.3151C225.979 94.6851 225.935 95.2364 225.601 95.5483C225.449 95.6825 225.264 95.7586 225.071 95.7586ZM225.068 94.355C224.966 94.355 224.872 94.3949 224.792 94.4675C224.592 94.6524 224.567 94.9861 224.734 95.211C224.886 95.4141 225.166 95.4467 225.347 95.2763C225.547 95.0913 225.572 94.7576 225.405 94.5327C225.322 94.4203 225.198 94.355 225.068 94.355Z" fill="#773C12"/>
<path d="M221.652 98.5947C221.366 98.8594 220.941 98.8159 220.702 98.4967C220.462 98.1776 220.502 97.7025 220.789 97.4341C221.075 97.1693 221.5 97.2128 221.74 97.532C221.979 97.8512 221.939 98.3263 221.652 98.5947Z" fill="#CC5B29"/>
<path d="M221.221 98.9501C220.959 98.9501 220.716 98.8232 220.553 98.6056C220.259 98.2139 220.31 97.6263 220.662 97.2999C221.014 96.9735 221.594 97.0315 221.885 97.4232C222.179 97.8149 222.128 98.4025 221.776 98.7289C221.623 98.8703 221.424 98.9501 221.221 98.9501ZM221.221 97.445C221.108 97.445 221.003 97.4885 220.912 97.5719C220.691 97.775 220.662 98.1414 220.847 98.3916C221.014 98.6165 221.326 98.6491 221.525 98.4641C221.747 98.2574 221.776 97.8947 221.591 97.6445C221.5 97.5175 221.362 97.445 221.221 97.445Z" fill="#773C12"/>
<path d="M218.462 101.775C218.15 102.065 217.685 102.018 217.424 101.67C217.163 101.322 217.206 100.803 217.518 100.517C217.831 100.227 218.295 100.274 218.556 100.622C218.818 100.967 218.774 101.485 218.462 101.775Z" fill="#CC5B29"/>
<path d="M217.994 102.149C217.714 102.149 217.457 102.015 217.279 101.779C216.967 101.358 217.018 100.731 217.395 100.379C217.772 100.027 218.389 100.093 218.702 100.51C219.017 100.93 218.963 101.558 218.582 101.906C218.422 102.066 218.212 102.149 217.994 102.149ZM217.99 100.506C217.863 100.506 217.743 100.557 217.645 100.647C217.399 100.876 217.366 101.286 217.573 101.558C217.762 101.808 218.11 101.848 218.339 101.638C218.585 101.409 218.618 100.999 218.411 100.727C218.306 100.589 218.154 100.506 217.99 100.506Z" fill="#773C12"/>
<path d="M215.577 105.304C215.236 105.62 214.727 105.569 214.444 105.188C214.161 104.807 214.208 104.242 214.55 103.926C214.891 103.611 215.399 103.661 215.682 104.042C215.965 104.419 215.918 104.989 215.577 105.304Z" fill="#CC5B29"/>
<path d="M215.061 105.696C214.764 105.696 214.484 105.551 214.296 105.297C213.958 104.844 214.012 104.169 214.423 103.788C214.829 103.411 215.493 103.48 215.827 103.93C216.165 104.383 216.11 105.058 215.7 105.439C215.522 105.602 215.294 105.696 215.061 105.696ZM215.061 103.901C214.92 103.901 214.782 103.955 214.673 104.06C214.397 104.314 214.361 104.771 214.59 105.079C214.8 105.362 215.196 105.406 215.453 105.17C215.729 104.916 215.765 104.459 215.533 104.151C215.413 103.991 215.243 103.901 215.061 103.901Z" fill="#773C12"/>
<path d="M212.662 108.616C212.332 108.924 211.835 108.873 211.559 108.503C211.283 108.133 211.327 107.586 211.661 107.277C211.991 106.969 212.485 107.02 212.76 107.39C213.04 107.756 212.993 108.307 212.662 108.616Z" fill="#CC5B29"/>
<path d="M212.161 109C211.867 109 211.595 108.859 211.414 108.612C211.084 108.169 211.138 107.513 211.537 107.143C211.933 106.773 212.582 106.838 212.909 107.281C213.239 107.723 213.185 108.383 212.786 108.753C212.612 108.913 212.39 109 212.161 109ZM212.161 107.259C212.024 107.259 211.893 107.31 211.788 107.411C211.523 107.658 211.486 108.097 211.708 108.394C211.911 108.67 212.292 108.71 212.539 108.481C212.804 108.235 212.84 107.796 212.615 107.499C212.503 107.346 212.336 107.259 212.161 107.259Z" fill="#773C12"/>
<path opacity="0.6" d="M239.113 86.4739C239.531 86.2962 238.809 84.9905 237.916 85.3097C232.036 87.464 224.922 91.3918 217.878 97.9273C214.197 101.34 211.105 104.855 208.554 108.278C208.198 108.761 209.171 109.693 209.686 109.116C212.169 105.845 215.141 102.501 218.651 99.2475C225.866 92.556 233.154 88.5955 239.113 86.4739Z" fill="url(#paint0_radial_261_4895)"/>
<path opacity="0.6" d="M237.792 85.7377C238.21 85.5527 237.477 84.258 236.587 84.5844C230.722 86.7931 223.641 90.7862 216.644 97.3834C212.989 100.832 209.922 104.372 207.392 107.821C207.037 108.307 208.02 109.229 208.532 108.648C210.989 105.355 213.94 101.982 217.424 98.6963C224.592 91.9359 231.847 87.9101 237.792 85.7377Z" fill="url(#paint1_radial_261_4895)"/>
<path d="M237.84 85.2952C238.29 85.1755 237.411 84.3631 236.671 84.5517C230.886 86.7423 223.968 90.6302 217.112 96.9916C213.25 100.575 210.035 104.267 207.41 107.85C207.08 108.282 207.98 108.935 208.474 108.267C211.025 104.844 214.118 101.329 217.798 97.9165C224.846 91.3774 231.956 87.4495 237.84 85.2952Z" fill="white"/>
<path d="M237.705 84.8092C237.774 84.9253 237.763 85.0304 237.625 85.0667C231.746 87.221 224.632 91.1489 217.587 97.6844C213.907 101.097 210.815 104.612 208.26 108.035C208.002 108.387 207.632 108.373 207.381 108.217C207.541 108.532 208.115 108.746 208.474 108.26C211.025 104.836 214.118 101.322 217.798 97.9092C224.843 91.3737 231.956 87.4495 237.836 85.2916C238.061 85.2335 237.956 85.0014 237.705 84.8092Z" fill="url(#paint2_radial_261_4895)"/>
<path d="M239.012 86.1439C239.433 85.9662 238.729 84.9761 237.84 85.2916C231.96 87.4495 224.846 91.3738 217.802 97.9093C214.121 101.322 211.029 104.836 208.478 108.26C208.118 108.743 209.073 109.359 209.588 108.782C212.071 105.511 215.043 102.167 218.553 98.9139C225.765 92.2224 233.052 88.2656 239.012 86.1439Z" fill="white"/>
<path d="M238.903 85.5201C238.979 85.6833 238.968 85.8357 238.827 85.8937C232.867 88.0154 225.579 91.9722 218.368 98.6637C214.858 101.917 211.886 105.261 209.403 108.532C209.109 108.862 208.677 108.804 208.42 108.605C208.543 108.967 209.193 109.225 209.588 108.782C212.071 105.511 215.043 102.167 218.553 98.9139C225.765 92.2225 233.052 88.2656 239.012 86.144C239.226 86.0533 239.146 85.7523 238.903 85.5201Z" fill="url(#paint3_radial_261_4895)"/>
<path opacity="0.6" d="M232.595 86.1729C232.512 86.0605 232.472 85.9045 232.504 85.7486C232.559 85.491 232.791 85.3278 233.023 85.3895C233.103 85.4113 233.811 85.6107 234.711 86.492C235.615 87.3697 235.887 88.1277 235.916 88.2112C235.999 88.4614 235.887 88.7407 235.666 88.835C235.44 88.9293 235.19 88.806 235.103 88.5557C235.103 88.5521 234.878 87.9428 234.138 87.2247C233.397 86.5029 232.827 86.3397 232.82 86.3361C232.733 86.3071 232.653 86.2491 232.595 86.1729Z" fill="url(#paint4_radial_261_4895)"/>
<path opacity="0.6" d="M228.995 87.7687C228.9 87.6417 228.86 87.4713 228.897 87.3008C228.958 87.0179 229.212 86.8402 229.47 86.9055C229.557 86.9272 230.338 87.1521 231.332 88.1205C232.326 89.0852 232.631 89.923 232.66 90.0137C232.755 90.2893 232.631 90.5976 232.381 90.7027C232.134 90.8079 231.858 90.6665 231.764 90.3908C231.764 90.3872 231.517 89.7163 230.701 88.922C229.884 88.1277 229.256 87.9464 229.249 87.9427C229.143 87.9174 229.056 87.8521 228.995 87.7687Z" fill="url(#paint5_radial_261_4895)"/>
<path opacity="0.6" d="M225.166 89.923C225.068 89.7924 225.024 89.6147 225.064 89.437C225.129 89.1396 225.391 88.9583 225.659 89.0235C225.746 89.0489 226.559 89.2774 227.594 90.2857C228.628 91.2939 228.94 92.1571 228.973 92.2514C229.071 92.5379 228.94 92.8607 228.683 92.9659C228.425 93.0747 228.138 92.9296 228.04 92.6431C228.04 92.6395 227.782 91.9431 226.937 91.1162C226.091 90.2929 225.434 90.1007 225.427 90.1007C225.325 90.0753 225.235 90.01 225.166 89.923Z" fill="url(#paint6_radial_261_4895)"/>
<path opacity="0.6" d="M221.326 92.5742C221.231 92.4509 221.188 92.2841 221.213 92.1136C221.26 91.8054 221.518 91.6023 221.794 91.653C221.888 91.6712 222.727 91.8489 223.837 92.7955C224.948 93.7457 225.318 94.6053 225.358 94.7032C225.474 94.9861 225.362 95.3234 225.104 95.4539C224.85 95.5845 224.549 95.4576 224.432 95.171C224.432 95.1674 224.128 94.4747 223.217 93.6949C222.306 92.9152 221.627 92.7701 221.62 92.7701C221.504 92.7447 221.398 92.6758 221.326 92.5742Z" fill="url(#paint7_radial_261_4895)"/>
<path opacity="0.6" d="M217.377 95.5808C217.282 95.4503 217.235 95.2798 217.261 95.1021C217.312 94.7865 217.58 94.5689 217.863 94.6233C217.958 94.6415 218.832 94.8264 219.983 95.8129C221.137 96.7994 221.522 97.6916 221.562 97.7895C221.681 98.0833 221.565 98.4351 221.3 98.5657C221.035 98.6999 220.723 98.5693 220.603 98.2755C220.603 98.2719 220.288 97.5538 219.344 96.745C218.4 95.9362 217.693 95.7875 217.689 95.7839C217.562 95.7585 217.453 95.6824 217.377 95.5808Z" fill="url(#paint8_radial_261_4895)"/>
<path opacity="0.6" d="M213.856 98.8341C213.766 98.7108 213.715 98.5476 213.733 98.3772C213.766 98.0471 214.031 97.8041 214.332 97.8404C214.43 97.8513 215.344 97.9818 216.593 98.9175C217.841 99.8569 218.291 100.753 218.339 100.851C218.48 101.148 218.379 101.518 218.11 101.674C217.845 101.83 217.511 101.717 217.37 101.42C217.37 101.416 217.003 100.695 215.98 99.9258C214.956 99.1569 214.219 99.0481 214.212 99.0481C214.067 99.0336 213.943 98.9538 213.856 98.8341Z" fill="url(#paint9_radial_261_4895)"/>
<path opacity="0.6" d="M210.394 102.134C210.318 102.011 210.278 101.859 210.292 101.696C210.325 101.337 210.608 101.072 210.931 101.108C211.04 101.119 212.023 101.246 213.381 102.243C214.738 103.237 215.232 104.198 215.283 104.303C215.439 104.622 215.334 105.021 215.047 105.195C214.76 105.37 214.404 105.25 214.248 104.934C214.248 104.931 213.845 104.158 212.735 103.342C211.624 102.523 210.826 102.417 210.819 102.417C210.641 102.396 210.492 102.287 210.394 102.134Z" fill="url(#paint10_radial_261_4895)"/>
<path opacity="0.6" d="M206.935 106.458C206.862 106.36 206.812 106.236 206.797 106.102C206.761 105.732 206.997 105.399 207.327 105.355C207.44 105.341 208.456 105.232 210.013 105.91C211.57 106.588 212.252 107.437 212.325 107.531C212.328 107.535 212.328 107.538 212.328 107.538C212.543 107.821 212.51 108.246 212.256 108.485C212.002 108.728 211.617 108.695 211.399 108.413C211.396 108.409 210.844 107.727 209.566 107.169C208.289 106.614 207.465 106.697 207.458 106.697C207.254 106.722 207.058 106.628 206.935 106.458Z" fill="url(#paint11_radial_261_4895)"/>
<path d="M232.679 85.9843C232.595 85.8718 232.555 85.7159 232.588 85.5599C232.642 85.3024 232.875 85.1428 233.107 85.2009C233.183 85.2226 233.895 85.4221 234.795 86.3034C235.698 87.1811 235.971 87.9391 236 88.0225C236.083 88.2728 235.971 88.552 235.749 88.6463C235.524 88.7406 235.274 88.6137 235.187 88.3634C235.187 88.3598 234.962 87.7541 234.221 87.0324C233.481 86.3107 232.907 86.1475 232.904 86.1438C232.817 86.1185 232.737 86.0641 232.679 85.9843Z" fill="#C4C6C8"/>
<path d="M229.078 87.5837C228.984 87.4567 228.944 87.2863 228.98 87.1158C229.042 86.8293 229.296 86.6552 229.554 86.7205C229.641 86.7422 230.421 86.9635 231.416 87.9355C232.41 88.9038 232.715 89.738 232.744 89.8287C232.838 90.1043 232.711 90.4126 232.468 90.5177C232.221 90.6229 231.942 90.4851 231.851 90.2095C231.851 90.2058 231.604 89.5349 230.788 88.7406C229.971 87.9463 229.343 87.7614 229.336 87.7614C229.227 87.7287 229.14 87.6671 229.078 87.5837Z" fill="#C4C6C8"/>
<path d="M225.253 89.7381C225.155 89.6075 225.111 89.4298 225.151 89.2521C225.217 88.9547 225.478 88.7733 225.746 88.8422C225.837 88.864 226.647 89.0961 227.681 90.1007C228.715 91.1054 229.027 91.9722 229.06 92.0665C229.158 92.353 229.027 92.6758 228.77 92.7846C228.512 92.8934 228.225 92.7483 228.127 92.4618C228.127 92.4582 227.87 91.7618 227.024 90.9385C226.178 90.1116 225.521 89.923 225.514 89.923C225.405 89.8904 225.315 89.8215 225.253 89.7381Z" fill="#C4C6C8"/>
<path d="M221.409 92.3892C221.319 92.2659 221.271 92.0991 221.3 91.9286C221.348 91.624 221.605 91.4172 221.881 91.468C221.972 91.4825 222.814 91.6602 223.924 92.6141C225.035 93.5643 225.405 94.4238 225.445 94.5181C225.561 94.801 225.449 95.1383 225.195 95.2689C224.941 95.3995 224.639 95.2725 224.52 94.986C224.52 94.9824 224.215 94.2896 223.307 93.5099C222.397 92.7301 221.718 92.5851 221.711 92.5814C221.587 92.5597 221.482 92.4871 221.409 92.3892Z" fill="#C4C6C8"/>
<path d="M217.46 95.3922C217.366 95.2653 217.319 95.0912 217.344 94.9135C217.395 94.5943 217.664 94.3803 217.947 94.4347C218.045 94.4529 218.916 94.6378 220.07 95.6243C221.224 96.6108 221.605 97.503 221.649 97.6009C221.769 97.8983 221.652 98.2465 221.388 98.3807C221.123 98.5149 220.81 98.3843 220.687 98.0905C220.687 98.0869 220.375 97.3688 219.428 96.56C218.484 95.7512 217.78 95.5989 217.773 95.5989C217.646 95.5699 217.537 95.4974 217.46 95.3922Z" fill="#C4C6C8"/>
<path d="M213.94 98.6491C213.849 98.5258 213.798 98.3625 213.817 98.1921C213.849 97.862 214.114 97.6227 214.415 97.6553C214.513 97.6662 215.428 97.7968 216.677 98.7361C217.925 99.6754 218.371 100.571 218.422 100.669C218.564 100.967 218.462 101.333 218.194 101.492C217.929 101.648 217.595 101.536 217.453 101.239C217.453 101.235 217.087 100.517 216.063 99.7444C215.04 98.9755 214.303 98.8667 214.296 98.8667C214.15 98.8449 214.027 98.7651 213.94 98.6491Z" fill="#C4C6C8"/>
<path d="M210.477 101.946C210.401 101.823 210.361 101.67 210.376 101.507C210.408 101.148 210.692 100.887 211.015 100.92C211.123 100.93 212.107 101.057 213.464 102.055C214.822 103.052 215.315 104.01 215.366 104.115C215.522 104.434 215.417 104.833 215.13 105.007C214.844 105.181 214.484 105.061 214.332 104.746C214.332 104.742 213.929 103.97 212.818 103.154C211.708 102.338 210.909 102.229 210.902 102.229C210.724 102.207 210.575 102.098 210.477 101.946Z" fill="#C4C6C8"/>
<path d="M207.019 106.273C206.946 106.175 206.895 106.051 206.884 105.914C206.848 105.544 207.084 105.214 207.414 105.17C207.523 105.156 208.543 105.047 210.1 105.725C211.657 106.403 212.339 107.252 212.412 107.346C212.412 107.35 212.416 107.35 212.419 107.353C212.63 107.636 212.601 108.061 212.347 108.3C212.093 108.543 211.708 108.51 211.49 108.227C211.486 108.224 210.935 107.542 209.657 106.987C208.38 106.432 207.556 106.516 207.548 106.516C207.338 106.537 207.142 106.439 207.019 106.273Z" fill="#C4C6C8"/>
<path d="M235.96 88.4613C235.941 88.4759 235.92 88.4867 235.898 88.494C235.673 88.5883 235.422 88.4613 235.339 88.2147C235.339 88.2111 235.114 87.6018 234.373 86.8837C233.633 86.1619 233.06 85.9987 233.056 85.9951C232.962 85.9697 232.882 85.9117 232.827 85.8355C232.74 85.7195 232.704 85.5672 232.737 85.4112C232.747 85.3532 232.769 85.3024 232.798 85.2552C232.697 85.3205 232.617 85.4257 232.588 85.5635C232.555 85.7195 232.591 85.8754 232.679 85.9879C232.737 86.0676 232.816 86.1221 232.907 86.1511C232.914 86.1511 233.484 86.3179 234.225 87.0396C234.965 87.7614 235.19 88.3707 235.19 88.3707C235.277 88.6209 235.528 88.7479 235.753 88.6536C235.84 88.6064 235.909 88.5411 235.96 88.4613Z" fill="url(#paint12_radial_261_4895)"/>
<path d="M232.686 90.3219C232.66 90.34 232.635 90.3545 232.61 90.3654C232.363 90.4706 232.087 90.3327 231.993 90.0571C231.993 90.0535 231.746 89.3825 230.929 88.5883C230.113 87.794 229.485 87.609 229.477 87.609C229.376 87.58 229.289 87.5147 229.223 87.4313C229.129 87.308 229.089 87.1339 229.125 86.9634C229.14 86.8945 229.165 86.8365 229.198 86.7821C229.093 86.8546 229.009 86.9707 228.977 87.1158C228.94 87.2862 228.98 87.4567 229.075 87.5836C229.136 87.667 229.223 87.7323 229.329 87.7613C229.336 87.7613 229.967 87.9463 230.78 88.7406C231.597 89.5348 231.844 90.2058 231.844 90.2094C231.938 90.4851 232.214 90.6229 232.461 90.5177C232.559 90.4742 232.635 90.4053 232.686 90.3219Z" fill="url(#paint13_radial_261_4895)"/>
<path d="M228.998 92.5851C228.973 92.6032 228.944 92.6177 228.915 92.6322C228.657 92.741 228.37 92.5959 228.272 92.3094C228.272 92.3094 228.015 91.6094 227.169 90.7862C226.323 89.9592 225.666 89.7707 225.659 89.7707C225.554 89.738 225.463 89.6727 225.398 89.5857C225.3 89.4551 225.256 89.2774 225.296 89.0997C225.311 89.0272 225.34 88.9655 225.376 88.9075C225.267 88.98 225.184 89.1033 225.151 89.252C225.111 89.4297 225.155 89.6074 225.253 89.738C225.318 89.8251 225.409 89.894 225.514 89.923C225.521 89.9266 226.175 90.1152 227.024 90.9385C227.87 91.7654 228.127 92.4617 228.127 92.4617C228.225 92.7483 228.512 92.8933 228.77 92.7845C228.864 92.741 228.944 92.6721 228.998 92.5851Z" fill="url(#paint14_radial_261_4895)"/>
<path d="M225.394 95.0803C225.376 95.0912 225.358 95.1057 225.336 95.1166C225.082 95.2435 224.781 95.1202 224.665 94.8337C224.665 94.8301 224.364 94.1374 223.453 93.3576C222.542 92.5778 221.863 92.4328 221.856 92.4328C221.732 92.4074 221.631 92.3348 221.554 92.2369C221.46 92.1136 221.416 91.9468 221.442 91.7763C221.456 91.6893 221.489 91.6131 221.529 91.5442C221.409 91.6276 221.322 91.7618 221.297 91.9286C221.271 92.0991 221.315 92.2659 221.406 92.3892C221.482 92.4872 221.583 92.5597 221.707 92.5851C221.714 92.5887 222.393 92.7338 223.304 93.5135C224.215 94.2933 224.516 94.986 224.516 94.9897C224.632 95.2762 224.933 95.3995 225.191 95.2725C225.275 95.2254 225.344 95.1601 225.394 95.0803Z" fill="url(#paint15_radial_261_4895)"/>
<path d="M221.663 98.0433C221.623 98.0832 221.58 98.1195 221.525 98.1449C221.26 98.2791 220.948 98.1485 220.828 97.8547C220.828 97.8511 220.513 97.133 219.569 96.3242C218.622 95.5155 217.921 95.3631 217.914 95.3631C217.787 95.3377 217.678 95.2616 217.602 95.16C217.508 95.0295 217.46 94.859 217.486 94.6813C217.493 94.6487 217.5 94.616 217.511 94.5834C217.428 94.6668 217.366 94.7828 217.348 94.9134C217.319 95.0911 217.366 95.2616 217.464 95.3921C217.54 95.4937 217.649 95.5699 217.776 95.5952C217.783 95.5989 218.487 95.7476 219.431 96.5564C220.375 97.3651 220.691 98.0832 220.691 98.0869C220.81 98.3843 221.122 98.5148 221.391 98.377C221.522 98.3117 221.62 98.1884 221.663 98.0433Z" fill="url(#paint16_radial_261_4895)"/>
<path d="M218.433 101.199C218.408 101.22 218.382 101.242 218.353 101.257C218.088 101.413 217.754 101.3 217.613 101.003C217.613 100.999 217.246 100.281 216.223 99.5085C215.199 98.7397 214.462 98.6309 214.455 98.6272C214.31 98.6091 214.187 98.5257 214.1 98.4133C214.009 98.2899 213.958 98.1267 213.976 97.9563C213.983 97.8946 214.001 97.833 214.023 97.7786C213.911 97.8765 213.835 98.0216 213.816 98.192C213.798 98.3625 213.849 98.5257 213.94 98.649C214.027 98.7651 214.15 98.8485 214.295 98.8666C214.303 98.8666 215.04 98.9754 216.063 99.7443C217.087 100.513 217.449 101.235 217.453 101.239C217.595 101.536 217.925 101.648 218.193 101.492C218.302 101.424 218.386 101.318 218.433 101.199Z" fill="url(#paint17_radial_261_4895)"/>
<path d="M215.37 104.738C215.363 104.746 215.355 104.753 215.344 104.757C215.058 104.931 214.698 104.811 214.546 104.495C214.542 104.492 214.143 103.719 213.029 102.903C211.918 102.087 211.12 101.978 211.113 101.978C210.935 101.957 210.782 101.848 210.688 101.696C210.612 101.572 210.572 101.416 210.586 101.257C210.593 101.17 210.619 101.086 210.652 101.014C210.499 101.119 210.39 101.293 210.372 101.507C210.358 101.667 210.398 101.822 210.474 101.946C210.568 102.098 210.721 102.207 210.898 102.229C210.906 102.229 211.7 102.334 212.815 103.153C213.925 103.97 214.328 104.742 214.328 104.746C214.484 105.065 214.844 105.181 215.127 105.007C215.239 104.945 215.319 104.851 215.37 104.738Z" fill="url(#paint18_radial_261_4895)"/>
<path d="M212.553 107.814C212.524 107.865 212.488 107.912 212.445 107.955C212.19 108.198 211.806 108.166 211.588 107.883C211.584 107.879 211.033 107.197 209.755 106.643C208.478 106.088 207.654 106.171 207.646 106.171C207.436 106.196 207.24 106.099 207.117 105.932C207.044 105.834 206.993 105.71 206.979 105.573C206.975 105.536 206.979 105.504 206.979 105.471C206.902 105.602 206.862 105.754 206.877 105.921C206.891 106.059 206.939 106.178 207.011 106.28C207.138 106.447 207.334 106.545 207.541 106.523C207.548 106.523 208.372 106.439 209.65 106.994C210.927 107.549 211.479 108.235 211.483 108.235C211.7 108.518 212.082 108.55 212.339 108.307C212.477 108.173 212.55 107.995 212.553 107.814Z" fill="url(#paint19_radial_261_4895)"/>
<path opacity="0.4" d="M251.468 83.9824C248.855 80.4862 229.133 77.3019 213.261 92.0231C197.39 106.748 195.503 127.453 199.226 132.444C202.95 137.431 221.562 139.124 237.433 124.403C253.301 109.678 254.078 87.4787 251.468 83.9824ZM231.967 117.813C218.034 131.185 202.779 131.693 199.992 128.077C197.205 124.458 199.941 107.698 213.875 94.3261C227.808 80.9541 243.897 81.5235 245.85 84.0622C247.806 86.601 245.901 104.441 231.967 117.813Z" fill="#CC5B29"/>
<path d="M236.341 100.745C237.89 102.468 237.382 105.453 235.205 107.412C233.027 109.37 230.004 109.559 228.454 107.836C226.904 106.113 227.412 103.128 229.59 101.17C231.764 99.2113 234.787 99.0191 236.341 100.745Z" fill="#CC5B29"/>
<path d="M226.915 110.665C227.601 111.43 227.376 112.75 226.414 113.617C225.449 114.484 224.109 114.567 223.423 113.806C222.738 113.044 222.963 111.72 223.924 110.853C224.886 109.987 226.225 109.903 226.915 110.665Z" fill="#CC5B29"/>
<path d="M92.0855 107.39C92.1145 123.301 79.2264 136.223 63.3041 136.252C47.3782 136.277 34.4466 123.402 34.4212 107.491C34.3922 91.5769 47.2802 78.6582 63.2025 78.6292C79.1284 78.6002 92.0601 91.4754 92.0855 107.39Z" fill="#323334"/>
<path d="M39.2483 104.938C39.2483 104.938 37.5969 108.242 36.8202 112.565C36.4101 114.749 36.5226 115.597 38.2103 117.998C41.4441 122.593 42.6454 123.845 43.7488 123.66C44.8557 123.471 50.0603 122.343 51.5774 121.973C52.728 121.694 52.728 121.415 53.1853 119.416C53.6426 117.418 54.3757 114.625 54.5572 113.091C54.7387 111.557 54.51 111.604 53.1707 109.932C51.8315 108.26 48.6449 103.991 47.9988 103.204C47.3528 102.414 47.0298 102.65 45.509 102.882C43.9883 103.117 41.6872 103.727 40.5803 104.006C39.4769 104.289 39.4769 104.568 39.2483 104.938Z" fill="white"/>
<path d="M41.466 89.3065C41.466 89.3065 40.0541 91.1996 38.7729 93.4192C38.0652 94.7104 38.2829 96.5746 38.7148 100.161C39.1468 103.745 39.5024 103.745 40.8526 103.458C42.2027 103.168 45.9701 102.374 46.9645 102.156C47.959 101.939 48.7393 100.216 49.6612 98.7071C50.5831 97.1984 54.2669 92.44 55.0073 91.6893C55.7114 91.0618 55.5009 90.4344 55.2941 88.7661C55.0836 87.0941 54.5791 83.6305 54.1254 83.5072C53.6717 83.3839 50.1512 83.3839 48.8264 83.3041C47.5053 83.2243 44.1517 85.9299 41.466 89.3065Z" fill="white"/>
<path d="M55 113.24C55 113.24 53.6136 118.829 53.1526 120.987C52.924 122.256 52.8768 122.535 55.4864 124.269C58.0959 125.999 59.3989 127.029 60.2373 127.497C61.0757 127.965 61.8197 127.965 64.2369 127.395C66.6541 126.83 69.0495 126.318 70.0476 125.883C71.0239 125.459 72.5519 122.078 73.2451 119.826C73.9384 117.574 74.4937 115.742 73.5173 114.944C72.5374 114.15 71.3724 112.932 69.7899 111.854C68.2075 110.777 66.8574 109.374 66.2512 109.653C65.6488 109.936 59.3989 111.503 56.9817 112.152C55.8348 112.478 55.0835 112.757 55 113.24Z" fill="white"/>
<path d="M59.8925 135.36C59.8925 135.36 61.0321 130.587 61.2136 129.43C61.3951 128.273 61.8088 128.226 63.4602 127.943C65.1116 127.664 69.5177 126.358 70.298 126.079C71.0784 125.799 71.5429 125.654 72.8786 126.67C74.2106 127.689 77.1903 129.909 78.2029 130.601C78.9361 131.109 75.5353 133.572 71.0965 134.779C65.95 136.179 59.8453 136.143 59.8925 135.36Z" fill="white"/>
<path d="M55.9255 90.4308C55.9255 90.4308 55.3121 86.9781 55.0871 85.0849C54.8621 83.1917 55.0835 83.4129 57.566 82.3503C60.0485 81.2876 65.9572 79.9384 67.2275 79.826C68.4978 79.7136 69.9895 80.098 73.1943 81.7083C76.3991 83.3186 77.2302 83.8735 77.3972 84.8201C77.5641 85.7667 77.9597 90.1116 78.0178 92.1172C77.9634 93.5099 77.4879 93.3467 75.1252 94.3187C72.7043 95.3161 70.3924 96.2881 69.8262 96.6145C69.0568 96.9409 67.7647 96.1756 65.6342 94.7938C63.7433 93.5716 59.8598 91.896 58.2011 91.4064C56.5461 90.9277 56.1179 91.2432 55.9255 90.4308Z" fill="white"/>
<path d="M69.3399 98.174C69.3399 98.174 68.1531 103.567 67.5905 106.32C67.0279 108.96 67.1985 109.359 68.7918 110.56C70.3852 111.76 72.2071 113.476 73.1762 114.223C74.1452 114.966 74.7731 115.829 77.84 114.959C81.7017 113.864 82.7252 113.573 83.9193 113.171C85.1134 112.768 85.3384 112.308 85.7884 110.128C86.2385 107.948 86.576 104.681 86.7974 102.9C87.0224 101.123 86.6813 100.836 85.2549 99.4035C83.8322 97.9745 81.1573 95.686 80.1302 94.656C79.1067 93.626 78.3663 93.5136 77.1177 93.9742C75.8692 94.4348 72.4612 95.7042 71.209 96.3933C69.9641 97.086 69.5105 97.144 69.3399 98.174Z" fill="white"/>
<path d="M90.0748 100.223C90.0748 100.223 88.2201 100.836 87.6503 101.108C87.0805 101.377 87.1604 103.212 86.9353 105.083C86.7103 106.958 86.0352 110.552 85.5816 112.155C85.3166 112.921 86.3764 113.559 87.2547 114.981C88.623 117.197 89.3453 118.419 89.6501 117.995C89.9514 117.574 91.9149 113.251 91.8278 106.102C91.5955 102.896 91.0221 99.6864 90.0748 100.223Z" fill="white"/>
<path d="M35.9783 116.08C35.9783 116.08 36.2505 115.293 36.4864 115.702C36.7259 116.112 39.4444 120.588 41.6511 122.974C42.4314 123.725 42.6346 123.932 42.7399 125.332C42.8415 126.735 42.6746 127.076 41.8616 126.256C41.0449 125.44 37.1034 120.49 35.9783 116.08Z" fill="white"/>
<path d="M69.133 79.2783C69.133 79.2783 68.7265 79.1405 68.5559 79.3146C68.389 79.4851 69.3362 79.7571 70.9985 80.4716C72.6608 81.186 75.2377 82.4808 76.3229 83.2316C77.0706 83.674 77.3754 83.7756 78.0178 83.4999C78.6602 83.2243 78.8635 83.1227 78.1195 82.7129C77.3754 82.3067 72.6245 79.7861 69.133 79.2783Z" fill="white"/>
<path d="M68.4216 126.92C68.4216 126.92 64.8285 127.805 62.5238 128.32C61.0067 128.516 61.1991 131.062 60.5349 133.873C60.5349 133.873 61.4459 130.62 61.9068 129.455C62.3678 128.291 64.2406 128.628 68.4216 126.92Z" fill="#979797"/>
<path d="M42.8995 88.1097C42.8995 88.1097 46.1733 84.6751 47.5089 83.9353C48.8445 83.199 53.8858 83.6923 53.8858 83.6923C53.8858 83.6923 50.3471 83.8083 48.6812 83.9026C47.0153 84.0005 42.8995 88.1097 42.8995 88.1097Z" fill="white"/>
<path d="M60.9777 81.5887C60.9777 81.5887 66.0589 80.1162 67.6449 80.0437C69.2273 79.9748 72.4031 81.3022 75.9019 83.2933C72.0039 81.5706 69.0967 80.4427 67.9062 80.4427C66.7194 80.4463 60.9777 81.5887 60.9777 81.5887Z" fill="white"/>
<path d="M41.9486 104.129C41.9486 104.129 46.4926 102.972 47.1786 103.088C47.8609 103.201 53.218 110.531 53.218 110.531C53.218 110.531 48.5469 104.804 47.1822 104.118C45.8139 103.433 41.9486 104.129 41.9486 104.129Z" fill="white"/>
<path d="M81.8977 96.5637C81.8977 96.5637 85.0009 99.4652 85.9082 100.379C86.8156 101.293 86.7648 101.347 85.9735 108.024C86.3401 103.77 86.5506 101.993 85.7485 100.916C84.95 99.8424 81.8977 96.5637 81.8977 96.5637Z" fill="url(#paint20_linear_261_4895)"/>
<path d="M53.8749 115.869C53.8749 115.869 53.1417 119.199 52.7389 120.693C52.336 122.187 50.9242 121.988 47.2875 122.742C51.1238 121.581 52.0674 121.444 52.4013 120.425C52.7352 119.405 53.8749 115.869 53.8749 115.869Z" fill="white"/>
<path d="M53.933 118.194C53.933 118.194 54.7242 114.923 55.0073 113.606C55.4029 112.344 57.9036 112.166 60.5168 111.474C60.5168 111.474 58.0742 112.282 56.4845 112.913C54.8912 113.548 54.8948 115.67 53.933 118.194Z" fill="white"/>
<path d="M55.4501 124C55.4501 124 58.3173 126.039 59.5767 126.88C60.8361 127.725 61.533 127.794 64.8176 127.083C68.1022 126.372 69.0096 126.021 69.0096 126.021C69.0096 126.021 64.4002 127.014 62.0266 127.091C59.6457 127.163 55.4501 124 55.4501 124Z" fill="white"/>
<path d="M67.7429 107.183C67.7429 107.183 69.0386 100.104 69.4487 98.4352C69.8589 96.7705 72.8169 95.8601 75.9091 94.6089C75.9091 94.6089 72.4031 96.4187 71.0275 97.3254C69.652 98.2284 69.7935 99.2657 67.7429 107.183Z" fill="white"/>
<path d="M70.6138 112.884C70.6138 112.884 72.6934 114.578 73.3685 115.202C74.0436 115.822 74.0472 117.407 71.9784 122.394C72.8713 119.054 74.098 116.221 72.864 115.089C71.6264 113.958 70.6138 112.884 70.6138 112.884Z" fill="white"/>
<path d="M38.5696 119.278C38.5696 119.278 40.2282 121.542 41.386 122.818C42.3914 123.859 42.6019 124.04 42.6055 126.155C42.4531 124.784 42.2716 124.117 41.6219 123.435C40.965 122.749 38.5696 119.278 38.5696 119.278Z" fill="white"/>
<path d="M63.2064 78.6292C47.2805 78.6582 34.3961 91.5805 34.4251 107.491C34.4541 123.402 47.3858 136.281 63.3081 136.252C79.2303 136.223 92.1148 123.301 92.0894 107.39C92.0604 91.4754 79.1287 78.6002 63.2064 78.6292ZM62.9742 130.279C48.4419 130.304 36.6427 119.137 36.6173 105.33C36.5919 91.5261 48.3512 80.3157 62.8834 80.2903C77.412 80.2649 89.2149 91.4355 89.2367 105.239C89.2657 119.043 77.5064 130.253 62.9742 130.279Z" fill="#CFD1D2"/>
<path d="M58.7819 93.4157C59.5876 94.3659 59.2646 95.9581 58.0669 96.97C56.8655 97.9855 55.2432 98.0399 54.4374 97.0896C53.6353 96.1394 53.9547 94.5473 55.1524 93.5354C56.3538 92.5199 57.9761 92.4655 58.7819 93.4157Z" fill="#4A4B4C"/>
<path d="M53.5664 98.5839C53.9221 99.0046 53.7805 99.7082 53.2506 100.158C52.7207 100.608 51.9985 100.629 51.6428 100.209C51.2871 99.788 51.4286 99.0844 51.9585 98.6346C52.4884 98.1885 53.2107 98.1632 53.5664 98.5839Z" fill="#4A4B4C"/>
<defs>
<radialGradient id="paint0_radial_261_4895" cx="0" cy="0" r="1" gradientUnits="userSpaceOnUse" gradientTransform="translate(229.612 86.3462) rotate(53.2568) scale(34.8119 33.9407)">
<stop stop-color="#451200"/>
<stop offset="0.2083" stop-color="#501705"/>
<stop offset="0.6797" stop-color="#641F0E"/>
<stop offset="1" stop-color="#6B2211"/>
</radialGradient>
<radialGradient id="paint1_radial_261_4895" cx="0" cy="0" r="1" gradientUnits="userSpaceOnUse" gradientTransform="translate(228.291 85.6947) rotate(52.8003) scale(34.782 33.9697)">
<stop stop-color="#451200"/>
<stop offset="0.2083" stop-color="#501705"/>
<stop offset="0.6797" stop-color="#641F0E"/>
<stop offset="1" stop-color="#6B2211"/>
</radialGradient>
<radialGradient id="paint2_radial_261_4895" cx="0" cy="0" r="1" gradientUnits="userSpaceOnUse" gradientTransform="translate(213.397 82.8833) rotate(53.2568) scale(21.111 20.5826)">
<stop stop-color="white"/>
<stop offset="0.165" stop-color="#F8F8F7"/>
<stop offset="0.4211" stop-color="#E6E4E1"/>
<stop offset="0.7344" stop-color="#C7C4BE"/>
<stop offset="1" stop-color="#A9A49A"/>
</radialGradient>
<radialGradient id="paint3_radial_261_4895" cx="0" cy="0" r="1" gradientUnits="userSpaceOnUse" gradientTransform="translate(212.206 81.2506) rotate(53.2568) scale(20.1035 19.6003)">
<stop stop-color="white"/>
<stop offset="0.165" stop-color="#F8F8F7"/>
<stop offset="0.4211" stop-color="#E6E4E1"/>
<stop offset="0.7344" stop-color="#C7C4BE"/>
<stop offset="1" stop-color="#A9A49A"/>
</radialGradient>
<radialGradient id="paint4_radial_261_4895" cx="0" cy="0" r="1" gradientUnits="userSpaceOnUse" gradientTransform="translate(234.819 86.3943) rotate(53.2569) scale(2.54552 2.48181)">
<stop offset="0.5475" stop-color="#8E8E8E"/>
<stop offset="0.5605" stop-color="#8B8685"/>
<stop offset="0.6185" stop-color="#826861"/>
<stop offset="0.6799" stop-color="#794E44"/>
<stop offset="0.7448" stop-color="#733B2E"/>
<stop offset="0.8149" stop-color="#6E2D1D"/>
<stop offset="0.8938" stop-color="#6C2514"/>
<stop offset="1" stop-color="#6B2211"/>
</radialGradient>
<radialGradient id="paint5_radial_261_4895" cx="0" cy="0" r="1" gradientUnits="userSpaceOnUse" gradientTransform="translate(231.235 87.9992) rotate(53.2568) scale(2.60933 2.54403)">
<stop offset="0.5475" stop-color="#8E8E8E"/>
<stop offset="0.5605" stop-color="#8B8685"/>
<stop offset="0.6185" stop-color="#826861"/>
<stop offset="0.6799" stop-color="#794E44"/>
<stop offset="0.7448" stop-color="#733B2E"/>
<stop offset="0.8149" stop-color="#6E2D1D"/>
<stop offset="0.8938" stop-color="#6C2514"/>
<stop offset="1" stop-color="#6B2211"/>
</radialGradient>
<radialGradient id="paint6_radial_261_4895" cx="0" cy="0" r="1" gradientUnits="userSpaceOnUse" gradientTransform="translate(227.382 90.4172) rotate(53.2569) scale(2.64816 2.58189)">
<stop offset="0.5475" stop-color="#8E8E8E"/>
<stop offset="0.5605" stop-color="#8B8685"/>
<stop offset="0.6185" stop-color="#826861"/>
<stop offset="0.6799" stop-color="#794E44"/>
<stop offset="0.7448" stop-color="#733B2E"/>
<stop offset="0.8149" stop-color="#6E2D1D"/>
<stop offset="0.8938" stop-color="#6C2514"/>
<stop offset="1" stop-color="#6B2211"/>
</radialGradient>
<radialGradient id="paint7_radial_261_4895" cx="0" cy="0" r="1" gradientUnits="userSpaceOnUse" gradientTransform="translate(223.817 92.804) rotate(53.2567) scale(2.7022 2.63458)">
<stop offset="0.5475" stop-color="#8E8E8E"/>
<stop offset="0.5605" stop-color="#8B8685"/>
<stop offset="0.6185" stop-color="#826861"/>
<stop offset="0.6799" stop-color="#794E44"/>
<stop offset="0.7448" stop-color="#733B2E"/>
<stop offset="0.8149" stop-color="#6E2D1D"/>
<stop offset="0.8938" stop-color="#6C2514"/>
<stop offset="1" stop-color="#6B2211"/>
</radialGradient>
<radialGradient id="paint8_radial_261_4895" cx="0" cy="0" r="1" gradientUnits="userSpaceOnUse" gradientTransform="translate(219.872 95.9462) rotate(53.2569) scale(2.77543 2.70597)">
<stop offset="0.5475" stop-color="#8E8E8E"/>
<stop offset="0.5605" stop-color="#8B8685"/>
<stop offset="0.6185" stop-color="#826861"/>
<stop offset="0.6799" stop-color="#794E44"/>
<stop offset="0.7448" stop-color="#733B2E"/>
<stop offset="0.8149" stop-color="#6E2D1D"/>
<stop offset="0.8938" stop-color="#6C2514"/>
<stop offset="1" stop-color="#6B2211"/>
</radialGradient>
<radialGradient id="paint9_radial_261_4895" cx="0" cy="0" r="1" gradientUnits="userSpaceOnUse" gradientTransform="translate(216.392 99.3232) rotate(53.2569) scale(2.90411 2.83143)">
<stop offset="0.5475" stop-color="#8E8E8E"/>
<stop offset="0.5605" stop-color="#8B8685"/>
<stop offset="0.6185" stop-color="#826861"/>
<stop offset="0.6799" stop-color="#794E44"/>
<stop offset="0.7448" stop-color="#733B2E"/>
<stop offset="0.8149" stop-color="#6E2D1D"/>
<stop offset="0.8938" stop-color="#6C2514"/>
<stop offset="1" stop-color="#6B2211"/>
</radialGradient>
<radialGradient id="paint10_radial_261_4895" cx="0" cy="0" r="1" gradientUnits="userSpaceOnUse" gradientTransform="translate(213.279 102.529) rotate(58.2244) scale(3.20028 3.06397)">
<stop offset="0.5475" stop-color="#8E8E8E"/>
<stop offset="0.5605" stop-color="#8B8685"/>
<stop offset="0.6185" stop-color="#826861"/>
<stop offset="0.6799" stop-color="#794E44"/>
<stop offset="0.7448" stop-color="#733B2E"/>
<stop offset="0.8149" stop-color="#6E2D1D"/>
<stop offset="0.8938" stop-color="#6C2514"/>
<stop offset="1" stop-color="#6B2211"/>
</radialGradient>
<radialGradient id="paint11_radial_261_4895" cx="0" cy="0" r="1" gradientUnits="userSpaceOnUse" gradientTransform="translate(209.965 106.13) rotate(53.2569) scale(3.18668 3.10693)">
<stop offset="0.5475" stop-color="#8E8E8E"/>
<stop offset="0.5605" stop-color="#8B8685"/>
<stop offset="0.6185" stop-color="#826861"/>
<stop offset="0.6799" stop-color="#794E44"/>
<stop offset="0.7448" stop-color="#733B2E"/>
<stop offset="0.8149" stop-color="#6E2D1D"/>
<stop offset="0.8938" stop-color="#6C2514"/>
<stop offset="1" stop-color="#6B2211"/>
</radialGradient>
<radialGradient id="paint12_radial_261_4895" cx="0" cy="0" r="1" gradientUnits="userSpaceOnUse" gradientTransform="translate(234.98 86.01) rotate(53.2569) scale(2.21346 2.15806)">
<stop stop-color="white"/>
<stop offset="0.165" stop-color="#F8F8F7"/>
<stop offset="0.4211" stop-color="#E6E4E1"/>
<stop offset="0.7344" stop-color="#C7C4BE"/>
<stop offset="1" stop-color="#A9A49A"/>
</radialGradient>
<radialGradient id="paint13_radial_261_4895" cx="0" cy="0" r="1" gradientUnits="userSpaceOnUse" gradientTransform="translate(231.661 87.3714) rotate(53.2568) scale(2.53649 2.47301)">
<stop stop-color="white"/>
<stop offset="0.165" stop-color="#F8F8F7"/>
<stop offset="0.4211" stop-color="#E6E4E1"/>
<stop offset="0.7344" stop-color="#C7C4BE"/>
<stop offset="1" stop-color="#A9A49A"/>
</radialGradient>
<radialGradient id="paint14_radial_261_4895" cx="0" cy="0" r="1" gradientUnits="userSpaceOnUse" gradientTransform="translate(228.016 89.4719) rotate(53.2569) scale(2.57345 2.50905)">
<stop stop-color="white"/>
<stop offset="0.165" stop-color="#F8F8F7"/>
<stop offset="0.4211" stop-color="#E6E4E1"/>
<stop offset="0.7344" stop-color="#C7C4BE"/>
<stop offset="1" stop-color="#A9A49A"/>
</radialGradient>
<radialGradient id="paint15_radial_261_4895" cx="0" cy="0" r="1" gradientUnits="userSpaceOnUse" gradientTransform="translate(224.061 92.204) rotate(53.2569) scale(2.62361 2.55795)">
<stop stop-color="white"/>
<stop offset="0.165" stop-color="#F8F8F7"/>
<stop offset="0.4211" stop-color="#E6E4E1"/>
<stop offset="0.7344" stop-color="#C7C4BE"/>
<stop offset="1" stop-color="#A9A49A"/>
</radialGradient>
<radialGradient id="paint16_radial_261_4895" cx="0" cy="0" r="1" gradientUnits="userSpaceOnUse" gradientTransform="translate(220.423 94.9397) rotate(53.2569) scale(2.71538 2.64743)">
<stop stop-color="white"/>
<stop offset="0.165" stop-color="#F8F8F7"/>
<stop offset="0.4211" stop-color="#E6E4E1"/>
<stop offset="0.7344" stop-color="#C7C4BE"/>
<stop offset="1" stop-color="#A9A49A"/>
</radialGradient>
<radialGradient id="paint17_radial_261_4895" cx="0" cy="0" r="1" gradientUnits="userSpaceOnUse" gradientTransform="translate(216.948 98.2688) rotate(53.2568) scale(2.83689 2.76589)">
<stop stop-color="white"/>
<stop offset="0.165" stop-color="#F8F8F7"/>
<stop offset="0.4211" stop-color="#E6E4E1"/>
<stop offset="0.7344" stop-color="#C7C4BE"/>
<stop offset="1" stop-color="#A9A49A"/>
</radialGradient>
<radialGradient id="paint18_radial_261_4895" cx="0" cy="0" r="1" gradientUnits="userSpaceOnUse" gradientTransform="translate(213.915 101.147) rotate(58.2244) scale(3.12418 2.99111)">
<stop stop-color="white"/>
<stop offset="0.165" stop-color="#F8F8F7"/>
<stop offset="0.4211" stop-color="#E6E4E1"/>
<stop offset="0.7344" stop-color="#C7C4BE"/>
<stop offset="1" stop-color="#A9A49A"/>
</radialGradient>
<radialGradient id="paint19_radial_261_4895" cx="0" cy="0" r="1" gradientUnits="userSpaceOnUse" gradientTransform="translate(210.721 104.686) rotate(53.2568) scale(3.13304 3.05463)">
<stop stop-color="white"/>
<stop offset="0.165" stop-color="#F8F8F7"/>
<stop offset="0.4211" stop-color="#E6E4E1"/>
<stop offset="0.7344" stop-color="#C7C4BE"/>
<stop offset="1" stop-color="#A9A49A"/>
</radialGradient>
<linearGradient id="paint20_linear_261_4895" x1="76.6997" y1="106.953" x2="87.3468" y2="100.092" gradientUnits="userSpaceOnUse">
<stop offset="0.2851" stop-color="#9E9E9E"/>
<stop offset="0.3829" stop-color="#AAAAAA"/>
<stop offset="0.559" stop-color="#CACACA"/>
<stop offset="0.6938" stop-color="#E6E6E6"/>
<stop offset="0.7367" stop-color="#ECECEC"/>
<stop offset="0.8733" stop-color="#F9F9F9"/>
<stop offset="1" stop-color="#FDFDFD"/>
</linearGradient>
</defs>
</svg>
